%
M48
M72
T01C0.0120
T02C0.0400
T03C0.1200
%
T01
X11483Y9600
X13283Y10550
X13883Y9850
X14283Y9300
X14583Y9650
X14333Y8700
X15283Y8250
X15964Y8231
X16220Y8400
X16983Y9350
X17233Y8550
X16933Y10150
X17283Y10650
X16633Y10850
X15733Y10800
X15183Y10600
X15233Y12250
X15833Y12950
X12533Y11800
X13183Y7750
X12833Y6750
X13733Y6600
X15033Y6650
X15433Y6600
X15833Y6600
X16933Y6550
X14533Y7600
X14333Y5650
X21683Y9600
X23483Y10550
X24083Y9850
X24483Y9300
X24783Y9650
X24533Y8700
X25483Y8250
X24733Y7600
X25233Y6650
X25633Y6600
X26033Y6600
X27133Y6550
X26164Y8231
X26420Y8400
X27433Y8550
X27183Y9350
X27133Y10150
X27483Y10650
X26833Y10850
X25933Y10800
X25383Y10600
X25433Y12250
X26033Y12950
X22733Y11800
X23383Y7750
X23033Y6750
X23933Y6600
X24533Y5650
X31883Y9600
X33683Y10550
X34283Y9850
X34683Y9300
X34983Y9650
X34733Y8700
X35683Y8250
X36364Y8231
X36620Y8400
X37633Y8550
X37383Y9350
X37333Y10150
X37683Y10650
X37033Y10850
X36133Y10800
X35583Y10600
X35633Y12250
X36233Y12950
X32933Y11800
X33583Y7750
X33233Y6750
X34133Y6600
X34733Y5650
X35433Y6650
X35833Y6600
X36233Y6600
X37333Y6550
X34933Y7600
X42083Y9600
X43883Y10550
X44483Y9850
X44883Y9300
X45183Y9650
X44933Y8700
X45883Y8250
X46564Y8231
X46820Y8400
X47583Y9350
X47833Y8550
X47533Y10150
X47883Y10650
X47233Y10850
X46333Y10800
X45783Y10600
X45833Y12250
X46433Y12950
X44933Y15850
X44333Y16800
X43433Y16950
X43783Y17950
X44933Y18900
X44883Y19500
X45183Y19850
X44483Y20050
X43883Y20750
X43133Y22000
X42083Y19800
X45133Y17800
X45883Y18450
X46564Y18431
X46820Y18600
X47833Y18750
X47583Y19550
X47533Y20350
X47883Y20850
X47233Y21050
X46333Y21000
X45783Y20800
X45833Y22450
X46433Y23150
X44933Y26050
X44333Y27000
X43433Y27150
X43783Y28150
X44933Y29100
X44883Y29700
X45183Y30050
X44483Y30250
X43883Y30950
X43133Y32200
X42083Y30000
X45133Y28000
X45633Y27050
X46033Y27000
X46433Y27000
X47533Y26950
X46564Y28631
X46820Y28800
X45883Y28650
X47583Y29750
X47533Y30550
X47883Y31050
X47233Y31250
X46333Y31200
X45783Y31000
X45833Y32650
X46433Y33350
X44933Y36250
X44333Y37200
X43433Y37350
X43783Y38350
X44933Y39300
X44883Y39900
X45183Y40250
X44483Y40450
X43883Y41150
X43133Y42400
X42083Y40200
X45133Y38200
X45883Y38850
X46564Y38831
X46820Y39000
X47583Y39950
X47833Y39150
X47533Y40750
X47883Y41250
X47233Y41450
X46333Y41400
X45783Y41200
X45833Y42850
X46433Y43550
X46433Y37200
X46033Y37200
X45633Y37250
X47533Y37150
X37633Y39150
X37383Y39950
X36620Y39000
X36364Y38831
X35683Y38850
X34933Y38200
X35433Y37250
X35833Y37200
X36233Y37200
X37333Y37150
X34733Y36250
X34133Y37200
X33233Y37350
X33583Y38350
X34733Y39300
X34683Y39900
X34983Y40250
X34283Y40450
X33683Y41150
X32933Y42400
X31883Y40200
X35583Y41200
X36133Y41400
X37033Y41450
X37683Y41250
X37333Y40750
X35633Y42850
X36233Y43550
X27483Y41250
X27133Y40750
X26833Y41450
X25933Y41400
X25383Y41200
X24783Y40250
X24483Y39900
X24533Y39300
X25483Y38850
X24733Y38200
X25233Y37250
X25633Y37200
X26033Y37200
X27133Y37150
X26164Y38831
X26420Y39000
X27433Y39150
X27183Y39950
X24083Y40450
X23483Y41150
X22733Y42400
X21683Y40200
X23383Y38350
X23033Y37350
X23933Y37200
X24533Y36250
X26033Y33350
X25433Y32650
X25933Y31200
X25383Y31000
X24783Y30050
X24483Y29700
X24533Y29100
X25483Y28650
X26164Y28631
X26420Y28800
X27433Y28950
X27183Y29750
X27133Y30550
X27483Y31050
X26833Y31250
X24083Y30250
X23483Y30950
X22733Y32200
X21683Y30000
X23383Y28150
X23033Y27150
X23933Y27000
X24533Y26050
X25233Y27050
X25633Y27000
X26033Y27000
X27133Y26950
X24733Y28000
X26033Y23150
X25433Y22450
X25933Y21000
X25383Y20800
X24783Y19850
X24483Y19500
X24533Y18900
X25483Y18450
X24733Y17800
X25233Y16850
X25633Y16800
X26033Y16800
X27133Y16750
X26164Y18431
X26420Y18600
X27433Y18750
X27183Y19550
X27133Y20350
X27483Y20850
X26833Y21050
X24083Y20050
X23483Y20750
X21683Y19800
X22733Y22000
X23383Y17950
X23033Y16950
X23933Y16800
X24533Y15850
X17233Y18750
X16983Y19550
X16933Y20350
X17283Y20850
X16633Y21050
X15733Y21000
X15183Y20800
X14583Y19850
X14283Y19500
X14333Y18900
X15283Y18450
X15964Y18431
X16220Y18600
X14533Y17800
X15033Y16850
X15433Y16800
X15833Y16800
X16933Y16750
X14333Y15850
X13733Y16800
X12833Y16950
X13183Y17950
X13883Y20050
X13283Y20750
X12533Y22000
X11483Y19800
X15233Y22450
X15833Y23150
X14333Y26050
X13733Y27000
X15033Y27050
X15433Y27000
X15833Y27000
X16933Y26950
X14533Y28000
X15283Y28650
X15964Y28631
X16220Y28800
X17233Y28950
X16983Y29750
X16933Y30550
X17283Y31050
X16633Y31250
X15733Y31200
X15183Y31000
X14583Y30050
X14283Y29700
X14333Y29100
X13883Y30250
X13283Y30950
X12533Y32200
X11483Y30000
X13183Y28150
X12833Y27150
X15233Y32650
X15833Y33350
X14333Y36250
X13733Y37200
X15033Y37250
X15433Y37200
X15833Y37200
X16933Y37150
X15964Y38831
X16220Y39000
X15283Y38850
X14533Y38200
X14333Y39300
X14283Y39900
X14583Y40250
X13883Y40450
X13283Y41150
X12533Y42400
X11483Y40200
X13183Y38350
X12833Y37350
X16983Y39950
X17233Y39150
X16933Y40750
X17283Y41250
X16633Y41450
X15733Y41400
X15183Y41200
X15233Y42850
X15833Y43550
X25433Y42850
X26033Y43550
X36233Y33350
X35633Y32650
X36133Y31200
X35583Y31000
X34983Y30050
X34683Y29700
X34733Y29100
X35683Y28650
X36364Y28631
X36620Y28800
X37633Y28950
X37383Y29750
X37333Y30550
X37683Y31050
X37033Y31250
X34283Y30250
X33683Y30950
X32933Y32200
X31883Y30000
X33583Y28150
X33233Y27150
X34133Y27000
X34733Y26050
X35833Y27000
X36233Y27000
X35433Y27050
X34933Y28000
X37333Y26950
X36233Y23150
X35633Y22450
X36133Y21000
X35583Y20800
X34983Y19850
X34683Y19500
X34733Y18900
X35683Y18450
X36364Y18431
X36620Y18600
X37633Y18750
X37383Y19550
X37333Y20350
X37683Y20850
X37033Y21050
X34283Y20050
X33683Y20750
X32933Y22000
X31883Y19800
X33583Y17950
X33233Y16950
X34133Y16800
X34733Y15850
X35433Y16850
X35833Y16800
X36233Y16800
X37333Y16750
X34933Y17800
X43133Y11800
X43783Y7750
X43433Y6750
X44333Y6600
X44933Y5650
X45633Y6650
X46033Y6600
X46433Y6600
X47533Y6550
X45133Y7600
X46033Y16800
X46433Y16800
X47533Y16750
X45633Y16850
X47833Y28950
T02
X47433Y25350
X46433Y25350
X45433Y25350
X44433Y25350
X43433Y25350
X44433Y24200
X45433Y24200
X46433Y24200
X47433Y24200
X48433Y24200
X48433Y25350
X49433Y25350
X39233Y25350
X38233Y25350
X37233Y25350
X36233Y25350
X35233Y25350
X34233Y25350
X33233Y25350
X34233Y24200
X35233Y24200
X36233Y24200
X37233Y24200
X38233Y24200
X29033Y25350
X28033Y25350
X27033Y25350
X26033Y25350
X25033Y25350
X24033Y25350
X23033Y25350
X24033Y24200
X25033Y24200
X26033Y24200
X27033Y24200
X28033Y24200
X18833Y25350
X17833Y25350
X16833Y25350
X15833Y25350
X14833Y25350
X13833Y25350
X12833Y25350
X13833Y24200
X14833Y24200
X15833Y24200
X16833Y24200
X17833Y24200
X17833Y15150
X18833Y15150
X17833Y14000
X16833Y14000
X15833Y14000
X14833Y14000
X13833Y14000
X13833Y15150
X14833Y15150
X15833Y15150
X16833Y15150
X12833Y15150
X23033Y15150
X24033Y15150
X25033Y15150
X26033Y15150
X27033Y15150
X28033Y15150
X29033Y15150
X28033Y14000
X27033Y14000
X26033Y14000
X25033Y14000
X24033Y14000
X33233Y15150
X34233Y15150
X35233Y15150
X36233Y15150
X37233Y15150
X38233Y15150
X39233Y15150
X38233Y14000
X37233Y14000
X36233Y14000
X35233Y14000
X34233Y14000
X43433Y15150
X44433Y15150
X45433Y15150
X46433Y15150
X47433Y15150
X48433Y15150
X49433Y15150
X48433Y14000
X47433Y14000
X46433Y14000
X45433Y14000
X44433Y14000
X44433Y4950
X43433Y4950
X45433Y4950
X46433Y4950
X47433Y4950
X48433Y4950
X49433Y4950
X39233Y4950
X38233Y4950
X37233Y4950
X36233Y4950
X35233Y4950
X34233Y4950
X33233Y4950
X29033Y4950
X28033Y4950
X27033Y4950
X26033Y4950
X25033Y4950
X24033Y4950
X23033Y4950
X18833Y4950
X17833Y4950
X16833Y4950
X15833Y4950
X14833Y4950
X13833Y4950
X12833Y4950
X13833Y34400
X14833Y34400
X15833Y34400
X16833Y34400
X17833Y34400
X17833Y35550
X18833Y35550
X16833Y35550
X15833Y35550
X14833Y35550
X13833Y35550
X12833Y35550
X23033Y35550
X24033Y35550
X25033Y35550
X26033Y35550
X27033Y35550
X28033Y35550
X29033Y35550
X28033Y34400
X27033Y34400
X26033Y34400
X25033Y34400
X24033Y34400
X33233Y35550
X34233Y35550
X35233Y35550
X36233Y35550
X37233Y35550
X38233Y35550
X39233Y35550
X38233Y34400
X37233Y34400
X36233Y34400
X35233Y34400
X34233Y34400
X43433Y35550
X44433Y35550
X45433Y35550
X46433Y35550
X47433Y35550
X48433Y35550
X49433Y35550
X48433Y34400
X47433Y34400
X46433Y34400
X45433Y34400
X44433Y34400
X44433Y44600
X45433Y44600
X46433Y44600
X47433Y44600
X48433Y44600
X38233Y44600
X37233Y44600
X36233Y44600
X35233Y44600
X34233Y44600
X28033Y44600
X27033Y44600
X26033Y44600
X25033Y44600
X24033Y44600
X17833Y44600
X16833Y44600
X15833Y44600
X14833Y44600
X13833Y44600
T03
X19833Y44100
X30033Y44100
X40233Y44100
X50433Y44100
X50433Y33900
X40233Y33900
X30033Y33900
X19833Y33900
X19833Y23700
X30033Y23700
X40233Y23700
X50433Y23700
X50433Y13500
X40233Y13500
X30033Y13500
X19833Y13500
M30
