G75*
%MOIN*%
%OFA0B0*%
%FSLAX25Y25*%
%IPPOS*%
%LPD*%
%AMOC8*
5,1,8,0,0,1.08239X$1,22.5*
%
%ADD10R,0.03300X0.05800*%
%ADD11C,0.08200*%
%ADD12C,0.00500*%
%ADD13C,0.12800*%
%ADD14C,0.04737*%
D10*
X0057150Y0055250D03*
X0060350Y0055250D03*
X0074750Y0055250D03*
X0078750Y0055250D03*
X0082750Y0055250D03*
X0095050Y0055250D03*
X0098250Y0055250D03*
X0105150Y0055250D03*
X0108350Y0055250D03*
X0159150Y0055250D03*
X0162350Y0055250D03*
X0176750Y0055250D03*
X0180750Y0055250D03*
X0184750Y0055250D03*
X0197050Y0055250D03*
X0200250Y0055250D03*
X0207150Y0055250D03*
X0210350Y0055250D03*
X0261150Y0055250D03*
X0264350Y0055250D03*
X0278750Y0055250D03*
X0282750Y0055250D03*
X0286750Y0055250D03*
X0299050Y0055250D03*
X0302250Y0055250D03*
X0309150Y0055250D03*
X0312350Y0055250D03*
X0363150Y0055250D03*
X0366350Y0055250D03*
X0380750Y0055250D03*
X0384750Y0055250D03*
X0388750Y0055250D03*
X0401050Y0055250D03*
X0404250Y0055250D03*
X0411150Y0055250D03*
X0414350Y0055250D03*
X0414350Y0157250D03*
X0411150Y0157250D03*
X0404250Y0157250D03*
X0401050Y0157250D03*
X0388750Y0157250D03*
X0384750Y0157250D03*
X0380750Y0157250D03*
X0366350Y0157250D03*
X0363150Y0157250D03*
X0312350Y0157250D03*
X0309150Y0157250D03*
X0302250Y0157250D03*
X0299050Y0157250D03*
X0286750Y0157250D03*
X0282750Y0157250D03*
X0278750Y0157250D03*
X0264350Y0157250D03*
X0261150Y0157250D03*
X0210350Y0157250D03*
X0207150Y0157250D03*
X0200250Y0157250D03*
X0197050Y0157250D03*
X0184750Y0157250D03*
X0180750Y0157250D03*
X0176750Y0157250D03*
X0162350Y0157250D03*
X0159150Y0157250D03*
X0108350Y0157250D03*
X0105150Y0157250D03*
X0098250Y0157250D03*
X0095050Y0157250D03*
X0082750Y0157250D03*
X0078750Y0157250D03*
X0074750Y0157250D03*
X0060350Y0157250D03*
X0057150Y0157250D03*
X0057150Y0259250D03*
X0060350Y0259250D03*
X0074750Y0259250D03*
X0078750Y0259250D03*
X0082750Y0259250D03*
X0095050Y0259250D03*
X0098250Y0259250D03*
X0105150Y0259250D03*
X0108350Y0259250D03*
X0159150Y0259250D03*
X0162350Y0259250D03*
X0176750Y0259250D03*
X0180750Y0259250D03*
X0184750Y0259250D03*
X0197050Y0259250D03*
X0200250Y0259250D03*
X0207150Y0259250D03*
X0210350Y0259250D03*
X0261150Y0259250D03*
X0264350Y0259250D03*
X0278750Y0259250D03*
X0282750Y0259250D03*
X0286750Y0259250D03*
X0299050Y0259250D03*
X0302250Y0259250D03*
X0309150Y0259250D03*
X0312350Y0259250D03*
X0363150Y0259250D03*
X0366350Y0259250D03*
X0380750Y0259250D03*
X0384750Y0259250D03*
X0388750Y0259250D03*
X0401050Y0259250D03*
X0404250Y0259250D03*
X0411150Y0259250D03*
X0414350Y0259250D03*
X0414350Y0361250D03*
X0411150Y0361250D03*
X0404250Y0361250D03*
X0401050Y0361250D03*
X0388750Y0361250D03*
X0384750Y0361250D03*
X0380750Y0361250D03*
X0366350Y0361250D03*
X0363150Y0361250D03*
X0312350Y0361250D03*
X0309150Y0361250D03*
X0302250Y0361250D03*
X0299050Y0361250D03*
X0286750Y0361250D03*
X0282750Y0361250D03*
X0278750Y0361250D03*
X0264350Y0361250D03*
X0261150Y0361250D03*
X0210350Y0361250D03*
X0207150Y0361250D03*
X0200250Y0361250D03*
X0197050Y0361250D03*
X0184750Y0361250D03*
X0180750Y0361250D03*
X0176750Y0361250D03*
X0162350Y0361250D03*
X0159150Y0361250D03*
X0108350Y0361250D03*
X0105150Y0361250D03*
X0098250Y0361250D03*
X0095050Y0361250D03*
X0082750Y0361250D03*
X0078750Y0361250D03*
X0074750Y0361250D03*
X0060350Y0361250D03*
X0057150Y0361250D03*
D11*
X0048750Y0033250D03*
X0058750Y0033250D03*
X0068750Y0033250D03*
X0078750Y0033250D03*
X0088750Y0033250D03*
X0098750Y0033250D03*
X0108750Y0033250D03*
X0150750Y0033250D03*
X0160750Y0033250D03*
X0170750Y0033250D03*
X0180750Y0033250D03*
X0190750Y0033250D03*
X0200750Y0033250D03*
X0210750Y0033250D03*
X0252750Y0033250D03*
X0262750Y0033250D03*
X0272750Y0033250D03*
X0282750Y0033250D03*
X0292750Y0033250D03*
X0302750Y0033250D03*
X0312750Y0033250D03*
X0354750Y0033250D03*
X0364750Y0033250D03*
X0374750Y0033250D03*
X0384750Y0033250D03*
X0394750Y0033250D03*
X0404750Y0033250D03*
X0414750Y0033250D03*
X0404750Y0123750D03*
X0394750Y0123750D03*
X0384750Y0123750D03*
X0374750Y0123750D03*
X0364750Y0123750D03*
X0364750Y0135250D03*
X0354750Y0135250D03*
X0374750Y0135250D03*
X0384750Y0135250D03*
X0394750Y0135250D03*
X0404750Y0135250D03*
X0414750Y0135250D03*
X0404750Y0225750D03*
X0394750Y0225750D03*
X0384750Y0225750D03*
X0374750Y0225750D03*
X0364750Y0225750D03*
X0364750Y0237250D03*
X0354750Y0237250D03*
X0374750Y0237250D03*
X0384750Y0237250D03*
X0394750Y0237250D03*
X0404750Y0237250D03*
X0414750Y0237250D03*
X0404750Y0327750D03*
X0394750Y0327750D03*
X0384750Y0327750D03*
X0374750Y0327750D03*
X0364750Y0327750D03*
X0364750Y0339250D03*
X0354750Y0339250D03*
X0374750Y0339250D03*
X0384750Y0339250D03*
X0394750Y0339250D03*
X0404750Y0339250D03*
X0414750Y0339250D03*
X0404750Y0429750D03*
X0394750Y0429750D03*
X0384750Y0429750D03*
X0374750Y0429750D03*
X0364750Y0429750D03*
X0302750Y0429750D03*
X0292750Y0429750D03*
X0282750Y0429750D03*
X0272750Y0429750D03*
X0262750Y0429750D03*
X0200750Y0429750D03*
X0190750Y0429750D03*
X0180750Y0429750D03*
X0170750Y0429750D03*
X0160750Y0429750D03*
X0098750Y0429750D03*
X0088750Y0429750D03*
X0078750Y0429750D03*
X0068750Y0429750D03*
X0058750Y0429750D03*
X0058750Y0339250D03*
X0048750Y0339250D03*
X0058750Y0327750D03*
X0068750Y0327750D03*
X0078750Y0327750D03*
X0088750Y0327750D03*
X0098750Y0327750D03*
X0098750Y0339250D03*
X0088750Y0339250D03*
X0078750Y0339250D03*
X0068750Y0339250D03*
X0108750Y0339250D03*
X0150750Y0339250D03*
X0160750Y0339250D03*
X0170750Y0339250D03*
X0180750Y0339250D03*
X0190750Y0339250D03*
X0200750Y0339250D03*
X0210750Y0339250D03*
X0200750Y0327750D03*
X0190750Y0327750D03*
X0180750Y0327750D03*
X0170750Y0327750D03*
X0160750Y0327750D03*
X0252750Y0339250D03*
X0262750Y0339250D03*
X0272750Y0339250D03*
X0282750Y0339250D03*
X0292750Y0339250D03*
X0302750Y0339250D03*
X0312750Y0339250D03*
X0302750Y0327750D03*
X0292750Y0327750D03*
X0282750Y0327750D03*
X0272750Y0327750D03*
X0262750Y0327750D03*
X0262750Y0237250D03*
X0252750Y0237250D03*
X0262750Y0225750D03*
X0272750Y0225750D03*
X0282750Y0225750D03*
X0292750Y0225750D03*
X0302750Y0225750D03*
X0302750Y0237250D03*
X0292750Y0237250D03*
X0282750Y0237250D03*
X0272750Y0237250D03*
X0312750Y0237250D03*
X0210750Y0237250D03*
X0200750Y0237250D03*
X0190750Y0237250D03*
X0180750Y0237250D03*
X0170750Y0237250D03*
X0160750Y0237250D03*
X0150750Y0237250D03*
X0160750Y0225750D03*
X0170750Y0225750D03*
X0180750Y0225750D03*
X0190750Y0225750D03*
X0200750Y0225750D03*
X0108750Y0237250D03*
X0098750Y0237250D03*
X0088750Y0237250D03*
X0078750Y0237250D03*
X0068750Y0237250D03*
X0058750Y0237250D03*
X0048750Y0237250D03*
X0058750Y0225750D03*
X0068750Y0225750D03*
X0078750Y0225750D03*
X0088750Y0225750D03*
X0098750Y0225750D03*
X0098750Y0135250D03*
X0088750Y0135250D03*
X0078750Y0135250D03*
X0068750Y0135250D03*
X0058750Y0135250D03*
X0048750Y0135250D03*
X0058750Y0123750D03*
X0068750Y0123750D03*
X0078750Y0123750D03*
X0088750Y0123750D03*
X0098750Y0123750D03*
X0108750Y0135250D03*
X0150750Y0135250D03*
X0160750Y0135250D03*
X0170750Y0135250D03*
X0180750Y0135250D03*
X0190750Y0135250D03*
X0200750Y0135250D03*
X0210750Y0135250D03*
X0200750Y0123750D03*
X0190750Y0123750D03*
X0180750Y0123750D03*
X0170750Y0123750D03*
X0160750Y0123750D03*
X0252750Y0135250D03*
X0262750Y0135250D03*
X0272750Y0135250D03*
X0282750Y0135250D03*
X0292750Y0135250D03*
X0302750Y0135250D03*
X0312750Y0135250D03*
X0302750Y0123750D03*
X0292750Y0123750D03*
X0282750Y0123750D03*
X0272750Y0123750D03*
X0262750Y0123750D03*
D12*
X0280000Y0156750D02*
X0280000Y0157750D01*
X0285500Y0157750D01*
X0285500Y0156750D01*
X0280000Y0156750D01*
X0280000Y0156867D02*
X0285500Y0156867D01*
X0285500Y0157366D02*
X0280000Y0157366D01*
X0183500Y0157366D02*
X0178000Y0157366D01*
X0178000Y0157750D02*
X0178000Y0156750D01*
X0183500Y0156750D01*
X0183500Y0157750D01*
X0178000Y0157750D01*
X0178000Y0156867D02*
X0183500Y0156867D01*
X0081500Y0156867D02*
X0076000Y0156867D01*
X0076000Y0156750D02*
X0076000Y0157750D01*
X0081500Y0157750D01*
X0081500Y0156750D01*
X0076000Y0156750D01*
X0076000Y0157366D02*
X0081500Y0157366D01*
X0081500Y0258750D02*
X0076000Y0258750D01*
X0076000Y0259750D01*
X0081500Y0259750D01*
X0081500Y0258750D01*
X0081500Y0259062D02*
X0076000Y0259062D01*
X0076000Y0259561D02*
X0081500Y0259561D01*
X0178000Y0259561D02*
X0183500Y0259561D01*
X0183500Y0259750D02*
X0178000Y0259750D01*
X0178000Y0258750D01*
X0183500Y0258750D01*
X0183500Y0259750D01*
X0183500Y0259062D02*
X0178000Y0259062D01*
X0280000Y0259062D02*
X0285500Y0259062D01*
X0285500Y0258750D02*
X0285500Y0259750D01*
X0280000Y0259750D01*
X0280000Y0258750D01*
X0285500Y0258750D01*
X0285500Y0259561D02*
X0280000Y0259561D01*
X0382000Y0259561D02*
X0387500Y0259561D01*
X0387500Y0259750D02*
X0382000Y0259750D01*
X0382000Y0258750D01*
X0387500Y0258750D01*
X0387500Y0259750D01*
X0387500Y0259062D02*
X0382000Y0259062D01*
X0382000Y0157750D02*
X0382000Y0156750D01*
X0387500Y0156750D01*
X0387500Y0157750D01*
X0382000Y0157750D01*
X0382000Y0157366D02*
X0387500Y0157366D01*
X0387500Y0156867D02*
X0382000Y0156867D01*
X0382000Y0055750D02*
X0382000Y0054750D01*
X0387500Y0054750D01*
X0387500Y0055750D01*
X0382000Y0055750D01*
X0382000Y0055670D02*
X0387500Y0055670D01*
X0387500Y0055171D02*
X0382000Y0055171D01*
X0285500Y0055171D02*
X0280000Y0055171D01*
X0280000Y0054750D02*
X0280000Y0055750D01*
X0285500Y0055750D01*
X0285500Y0054750D01*
X0280000Y0054750D01*
X0280000Y0055670D02*
X0285500Y0055670D01*
X0183500Y0055670D02*
X0178000Y0055670D01*
X0178000Y0055750D02*
X0178000Y0054750D01*
X0183500Y0054750D01*
X0183500Y0055750D01*
X0178000Y0055750D01*
X0178000Y0055171D02*
X0183500Y0055171D01*
X0081500Y0055171D02*
X0076000Y0055171D01*
X0076000Y0054750D02*
X0076000Y0055750D01*
X0081500Y0055750D01*
X0081500Y0054750D01*
X0076000Y0054750D01*
X0076000Y0055670D02*
X0081500Y0055670D01*
X0081500Y0360750D02*
X0076000Y0360750D01*
X0076000Y0361750D01*
X0081500Y0361750D01*
X0081500Y0360750D01*
X0081500Y0360759D02*
X0076000Y0360759D01*
X0076000Y0361257D02*
X0081500Y0361257D01*
X0178000Y0361257D02*
X0183500Y0361257D01*
X0183500Y0361750D02*
X0178000Y0361750D01*
X0178000Y0360750D01*
X0183500Y0360750D01*
X0183500Y0361750D01*
X0183500Y0360759D02*
X0178000Y0360759D01*
X0280000Y0360759D02*
X0285500Y0360759D01*
X0285500Y0360750D02*
X0285500Y0361750D01*
X0280000Y0361750D01*
X0280000Y0360750D01*
X0285500Y0360750D01*
X0285500Y0361257D02*
X0280000Y0361257D01*
X0382000Y0361257D02*
X0387500Y0361257D01*
X0387500Y0361750D02*
X0382000Y0361750D01*
X0382000Y0360750D01*
X0387500Y0360750D01*
X0387500Y0361750D01*
X0387500Y0360759D02*
X0382000Y0360759D01*
D13*
X0424750Y0322750D03*
X0322750Y0322750D03*
X0220750Y0322750D03*
X0118750Y0322750D03*
X0118750Y0424750D03*
X0220750Y0424750D03*
X0322750Y0424750D03*
X0424750Y0424750D03*
X0424750Y0220750D03*
X0322750Y0220750D03*
X0220750Y0220750D03*
X0118750Y0220750D03*
X0118750Y0118750D03*
X0220750Y0118750D03*
X0322750Y0118750D03*
X0424750Y0118750D03*
D14*
X0429750Y0140750D03*
X0339750Y0123750D03*
X0327750Y0140750D03*
X0237750Y0123750D03*
X0225750Y0140750D03*
X0135750Y0123750D03*
X0123750Y0140750D03*
X0135750Y0225750D03*
X0123750Y0242750D03*
X0135750Y0327750D03*
X0123750Y0344750D03*
X0135750Y0429750D03*
X0225750Y0344750D03*
X0237750Y0327750D03*
X0327750Y0344750D03*
X0339750Y0327750D03*
X0429750Y0344750D03*
X0339750Y0429750D03*
X0237750Y0429750D03*
X0225750Y0242750D03*
X0237750Y0225750D03*
X0327750Y0242750D03*
X0339750Y0225750D03*
X0429750Y0242750D03*
X0429750Y0038750D03*
X0327750Y0038750D03*
X0225750Y0038750D03*
X0123750Y0038750D03*
X0033750Y0123750D03*
X0033750Y0225750D03*
X0033750Y0327750D03*
X0033750Y0429750D03*
M02*
