%
M48
M72
T01C0.0120
T02C0.0400
T03C0.1200
%
T01
X4875Y5125
X5775Y4975
X6375Y4025
X7075Y5025
X7475Y4975
X7875Y4975
X8975Y4925
X8006Y6606
X8261Y6775
X7325Y6625
X6575Y5975
X6375Y7075
X6325Y7675
X6625Y8025
X5925Y8225
X5325Y8925
X4575Y10175
X3525Y7975
X5225Y6125
X7225Y8975
X7775Y9175
X8675Y9225
X9325Y9025
X8975Y8525
X9025Y7725
X9275Y6925
X7275Y10625
X7875Y11325
X6375Y14225
X5775Y15175
X4875Y15325
X5225Y16325
X6375Y17275
X6325Y17875
X6625Y18225
X5925Y18425
X5325Y19125
X4575Y20375
X3525Y18175
X6575Y16175
X7325Y16825
X8006Y16806
X8261Y16975
X9275Y17125
X9025Y17925
X8975Y18725
X9325Y19225
X8675Y19425
X7775Y19375
X7225Y19175
X7275Y20825
X7875Y21525
X6375Y24425
X5775Y25375
X4875Y25525
X5225Y26525
X6375Y27475
X6325Y28075
X6625Y28425
X5925Y28625
X5325Y29325
X4575Y30575
X3525Y28375
X6575Y26375
X7325Y27025
X8006Y27006
X8261Y27175
X9275Y27325
X9025Y28125
X8975Y28925
X9325Y29425
X8675Y29625
X7775Y29575
X7225Y29375
X7275Y31025
X7875Y31725
X6375Y34625
X5775Y35575
X4875Y35725
X5225Y36725
X6375Y37675
X6325Y38275
X6625Y38625
X5925Y38825
X5325Y39525
X4575Y40775
X3525Y38575
X6575Y36575
X7325Y37225
X8006Y37206
X8261Y37375
X9275Y37525
X9025Y38325
X8975Y39125
X9325Y39625
X8675Y39825
X7775Y39775
X7225Y39575
X7275Y41225
X7875Y41925
X13725Y38575
X15525Y39525
X16125Y38825
X16525Y38275
X16825Y38625
X16575Y37675
X17525Y37225
X18206Y37206
X18461Y37375
X19475Y37525
X19225Y38325
X19175Y39125
X19525Y39625
X18875Y39825
X17975Y39775
X17425Y39575
X17475Y41225
X18075Y41925
X14775Y40775
X15425Y36725
X15075Y35725
X15975Y35575
X16575Y34625
X17275Y35625
X17675Y35575
X18075Y35575
X19175Y35525
X16775Y36575
X18075Y31725
X17475Y31025
X17975Y29575
X17425Y29375
X16825Y28425
X16525Y28075
X16575Y27475
X17525Y27025
X18206Y27006
X18461Y27175
X19475Y27325
X19225Y28125
X19175Y28925
X19525Y29425
X18875Y29625
X16125Y28625
X15525Y29325
X14775Y30575
X13725Y28375
X15425Y26525
X15075Y25525
X15975Y25375
X16575Y24425
X17275Y25425
X17675Y25375
X18075Y25375
X19175Y25325
X16775Y26375
X18075Y21525
X17475Y20825
X17975Y19375
X17425Y19175
X16825Y18225
X16525Y17875
X16575Y17275
X17525Y16825
X18206Y16806
X18461Y16975
X19475Y17125
X19225Y17925
X19175Y18725
X19525Y19225
X18875Y19425
X16125Y18425
X15525Y19125
X14775Y20375
X13725Y18175
X15425Y16325
X15075Y15325
X15975Y15175
X16575Y14225
X17275Y15225
X17675Y15175
X18075Y15175
X19175Y15125
X16775Y16175
X18075Y11325
X17475Y10625
X17975Y9175
X17425Y8975
X16825Y8025
X16525Y7675
X16575Y7075
X17525Y6625
X18206Y6606
X18461Y6775
X19475Y6925
X19225Y7725
X19175Y8525
X19525Y9025
X18875Y9225
X16125Y8225
X15525Y8925
X14775Y10175
X13725Y7975
X15425Y6125
X15075Y5125
X15975Y4975
X16575Y4025
X17275Y5025
X17675Y4975
X18075Y4975
X19175Y4925
X16775Y5975
X23925Y7975
X25725Y8925
X26325Y8225
X26725Y7675
X27025Y8025
X26775Y7075
X27725Y6625
X28406Y6606
X28661Y6775
X29675Y6925
X29425Y7725
X29375Y8525
X29725Y9025
X29075Y9225
X28175Y9175
X27625Y8975
X27675Y10625
X28275Y11325
X26775Y14225
X26175Y15175
X25275Y15325
X25625Y16325
X26775Y17275
X26725Y17875
X27025Y18225
X26325Y18425
X25725Y19125
X24975Y20375
X23925Y18175
X26975Y16175
X27725Y16825
X28406Y16806
X28661Y16975
X29675Y17125
X29425Y17925
X29375Y18725
X29725Y19225
X29075Y19425
X28175Y19375
X27625Y19175
X27675Y20825
X28275Y21525
X26775Y24425
X26175Y25375
X25275Y25525
X25625Y26525
X26775Y27475
X26725Y28075
X27025Y28425
X26325Y28625
X25725Y29325
X24975Y30575
X23925Y28375
X26975Y26375
X27725Y27025
X28406Y27006
X28661Y27175
X29675Y27325
X29425Y28125
X29375Y28925
X29725Y29425
X29075Y29625
X28175Y29575
X27625Y29375
X27675Y31025
X28275Y31725
X26775Y34625
X26175Y35575
X25275Y35725
X25625Y36725
X26775Y37675
X26725Y38275
X27025Y38625
X26325Y38825
X25725Y39525
X24975Y40775
X23925Y38575
X26975Y36575
X27725Y37225
X28406Y37206
X28661Y37375
X29675Y37525
X29425Y38325
X29375Y39125
X29725Y39625
X29075Y39825
X28175Y39775
X27625Y39575
X27675Y41225
X28275Y41925
X34125Y38575
X35925Y39525
X36525Y38825
X36925Y38275
X37225Y38625
X36975Y37675
X37925Y37225
X38606Y37206
X38861Y37375
X39875Y37525
X39625Y38325
X39575Y39125
X39925Y39625
X39275Y39825
X38375Y39775
X37825Y39575
X37875Y41225
X38475Y41925
X35175Y40775
X35825Y36725
X35475Y35725
X36375Y35575
X36975Y34625
X37675Y35625
X38075Y35575
X38475Y35575
X39575Y35525
X37175Y36575
X38475Y31725
X37875Y31025
X38375Y29575
X37825Y29375
X37225Y28425
X36925Y28075
X36975Y27475
X37925Y27025
X38606Y27006
X38861Y27175
X39875Y27325
X39625Y28125
X39575Y28925
X39925Y29425
X39275Y29625
X36525Y28625
X35925Y29325
X35175Y30575
X34125Y28375
X35825Y26525
X35475Y25525
X36375Y25375
X36975Y24425
X37675Y25425
X38075Y25375
X38475Y25375
X39575Y25325
X37175Y26375
X38475Y21525
X37875Y20825
X38375Y19375
X37825Y19175
X37225Y18225
X36925Y17875
X36975Y17275
X37925Y16825
X38606Y16806
X38861Y16975
X39875Y17125
X39625Y17925
X39575Y18725
X39925Y19225
X39275Y19425
X36525Y18425
X35925Y19125
X35175Y20375
X34125Y18175
X35825Y16325
X35475Y15325
X36375Y15175
X36975Y14225
X37675Y15225
X38075Y15175
X38475Y15175
X39575Y15125
X37175Y16175
X38475Y11325
X37875Y10625
X38375Y9175
X37825Y8975
X37225Y8025
X36925Y7675
X36975Y7075
X37925Y6625
X38606Y6606
X38861Y6775
X39875Y6925
X39625Y7725
X39575Y8525
X39925Y9025
X39275Y9225
X36525Y8225
X35925Y8925
X35175Y10175
X34125Y7975
X35825Y6125
X35475Y5125
X36375Y4975
X36975Y4025
X37675Y5025
X38075Y4975
X38475Y4975
X39575Y4925
X37175Y5975
X29375Y4925
X28275Y4975
X27875Y4975
X27475Y5025
X26975Y5975
X26175Y4975
X25275Y5125
X25625Y6125
X26775Y4025
X24975Y10175
X27475Y15225
X27875Y15175
X28275Y15175
X29375Y15125
X29375Y25325
X28275Y25375
X27875Y25375
X27475Y25425
X27875Y35575
X28275Y35575
X27475Y35625
X29375Y35525
X8975Y35525
X7875Y35575
X7475Y35575
X7075Y35625
X7075Y25425
X7475Y25375
X7875Y25375
X8975Y25325
X8975Y15125
X7875Y15175
X7475Y15175
X7075Y15225
T02
X4875Y3325
X5875Y3325
X6875Y3325
X7875Y3325
X8875Y3325
X9875Y3325
X10875Y3325
X15075Y3325
X16075Y3325
X17075Y3325
X18075Y3325
X19075Y3325
X20075Y3325
X21075Y3325
X25275Y3325
X26275Y3325
X27275Y3325
X28275Y3325
X29275Y3325
X30275Y3325
X31275Y3325
X35475Y3325
X36475Y3325
X37475Y3325
X38475Y3325
X39475Y3325
X40475Y3325
X41475Y3325
X40475Y12375
X39475Y12375
X38475Y12375
X37475Y12375
X36475Y12375
X36475Y13525
X35475Y13525
X37475Y13525
X38475Y13525
X39475Y13525
X40475Y13525
X41475Y13525
X40475Y22575
X39475Y22575
X38475Y22575
X37475Y22575
X36475Y22575
X36475Y23725
X35475Y23725
X37475Y23725
X38475Y23725
X39475Y23725
X40475Y23725
X41475Y23725
X40475Y32775
X39475Y32775
X38475Y32775
X37475Y32775
X36475Y32775
X36475Y33925
X35475Y33925
X37475Y33925
X38475Y33925
X39475Y33925
X40475Y33925
X41475Y33925
X40475Y42975
X39475Y42975
X38475Y42975
X37475Y42975
X36475Y42975
X30275Y42975
X29275Y42975
X28275Y42975
X27275Y42975
X26275Y42975
X20075Y42975
X19075Y42975
X18075Y42975
X17075Y42975
X16075Y42975
X9875Y42975
X8875Y42975
X7875Y42975
X6875Y42975
X5875Y42975
X5875Y33925
X4875Y33925
X5875Y32775
X6875Y32775
X7875Y32775
X8875Y32775
X9875Y32775
X9875Y33925
X8875Y33925
X7875Y33925
X6875Y33925
X10875Y33925
X15075Y33925
X16075Y33925
X17075Y33925
X18075Y33925
X19075Y33925
X20075Y33925
X21075Y33925
X20075Y32775
X19075Y32775
X18075Y32775
X17075Y32775
X16075Y32775
X25275Y33925
X26275Y33925
X27275Y33925
X28275Y33925
X29275Y33925
X30275Y33925
X31275Y33925
X30275Y32775
X29275Y32775
X28275Y32775
X27275Y32775
X26275Y32775
X26275Y23725
X25275Y23725
X26275Y22575
X27275Y22575
X28275Y22575
X29275Y22575
X30275Y22575
X30275Y23725
X29275Y23725
X28275Y23725
X27275Y23725
X31275Y23725
X21075Y23725
X20075Y23725
X19075Y23725
X18075Y23725
X17075Y23725
X16075Y23725
X15075Y23725
X16075Y22575
X17075Y22575
X18075Y22575
X19075Y22575
X20075Y22575
X10875Y23725
X9875Y23725
X8875Y23725
X7875Y23725
X6875Y23725
X5875Y23725
X4875Y23725
X5875Y22575
X6875Y22575
X7875Y22575
X8875Y22575
X9875Y22575
X9875Y13525
X8875Y13525
X7875Y13525
X6875Y13525
X5875Y13525
X4875Y13525
X5875Y12375
X6875Y12375
X7875Y12375
X8875Y12375
X9875Y12375
X10875Y13525
X15075Y13525
X16075Y13525
X17075Y13525
X18075Y13525
X19075Y13525
X20075Y13525
X21075Y13525
X20075Y12375
X19075Y12375
X18075Y12375
X17075Y12375
X16075Y12375
X25275Y13525
X26275Y13525
X27275Y13525
X28275Y13525
X29275Y13525
X30275Y13525
X31275Y13525
X30275Y12375
X29275Y12375
X28275Y12375
X27275Y12375
X26275Y12375
T03
X22075Y11875
X11875Y11875
X11875Y22075
X22075Y22075
X32275Y22075
X42475Y22075
X42475Y11875
X32275Y11875
X32275Y32275
X42475Y32275
X42475Y42475
X32275Y42475
X22075Y42475
X11875Y42475
X11875Y32275
X22075Y32275
M30
