G75*
%MOIN*%
%OFA0B0*%
%FSLAX25Y25*%
%IPPOS*%
%LPD*%
%AMOC8*
5,1,8,0,0,1.08239X$1,22.5*
%
%ADD10R,0.08674X0.05524*%
%ADD11R,0.06115X0.03162*%
%ADD12R,0.04737X0.05131*%
%ADD13C,0.01990*%
%ADD14R,0.05131X0.04737*%
%ADD15C,0.08200*%
%ADD16C,0.12800*%
%ADD17C,0.04737*%
%ADD18R,0.13400X0.05918*%
%ADD19R,0.11430X0.11430*%
%ADD20C,0.01378*%
%ADD21C,0.05000*%
%ADD22C,0.06706*%
D10*
X0113865Y0083976D03*
X0113865Y0106024D03*
X0113865Y0185976D03*
X0113865Y0208024D03*
X0113865Y0287976D03*
X0113865Y0310024D03*
X0113865Y0389976D03*
X0113865Y0412024D03*
X0215865Y0412024D03*
X0215865Y0389976D03*
X0317865Y0389976D03*
X0317865Y0412024D03*
X0419865Y0412024D03*
X0419865Y0389976D03*
X0419865Y0310024D03*
X0419865Y0287976D03*
X0419865Y0208024D03*
X0419865Y0185976D03*
X0419865Y0106024D03*
X0419865Y0083976D03*
X0317865Y0083976D03*
X0317865Y0106024D03*
X0317865Y0185976D03*
X0317865Y0208024D03*
X0317865Y0287976D03*
X0317865Y0310024D03*
X0215865Y0310024D03*
X0215865Y0287976D03*
X0215865Y0208024D03*
X0215865Y0185976D03*
X0215865Y0106024D03*
X0215865Y0083976D03*
D11*
X0230333Y0089094D03*
X0230333Y0093031D03*
X0230333Y0096969D03*
X0230333Y0100906D03*
X0332333Y0100906D03*
X0332333Y0096969D03*
X0332333Y0093031D03*
X0332333Y0089094D03*
X0434333Y0089094D03*
X0434333Y0093031D03*
X0434333Y0096969D03*
X0434333Y0100906D03*
X0434333Y0191094D03*
X0434333Y0195031D03*
X0434333Y0198969D03*
X0434333Y0202906D03*
X0332333Y0202906D03*
X0332333Y0198969D03*
X0332333Y0195031D03*
X0332333Y0191094D03*
X0230333Y0191094D03*
X0230333Y0195031D03*
X0230333Y0198969D03*
X0230333Y0202906D03*
X0128333Y0202906D03*
X0128333Y0198969D03*
X0128333Y0195031D03*
X0128333Y0191094D03*
X0128333Y0100906D03*
X0128333Y0096969D03*
X0128333Y0093031D03*
X0128333Y0089094D03*
X0128333Y0293094D03*
X0128333Y0297031D03*
X0128333Y0300969D03*
X0128333Y0304906D03*
X0230333Y0304906D03*
X0230333Y0300969D03*
X0230333Y0297031D03*
X0230333Y0293094D03*
X0332333Y0293094D03*
X0332333Y0297031D03*
X0332333Y0300969D03*
X0332333Y0304906D03*
X0434333Y0304906D03*
X0434333Y0300969D03*
X0434333Y0297031D03*
X0434333Y0293094D03*
X0434333Y0395094D03*
X0434333Y0399031D03*
X0434333Y0402969D03*
X0434333Y0406906D03*
X0332333Y0406906D03*
X0332333Y0402969D03*
X0332333Y0399031D03*
X0332333Y0395094D03*
X0230333Y0395094D03*
X0230333Y0399031D03*
X0230333Y0402969D03*
X0230333Y0406906D03*
X0128333Y0406906D03*
X0128333Y0402969D03*
X0128333Y0399031D03*
X0128333Y0395094D03*
D12*
X0140833Y0383346D03*
X0140833Y0376654D03*
X0150333Y0376654D03*
X0150333Y0383346D03*
X0157333Y0383346D03*
X0163333Y0383346D03*
X0169833Y0383346D03*
X0169833Y0376654D03*
X0163333Y0376654D03*
X0157333Y0376654D03*
X0181333Y0397654D03*
X0187333Y0397654D03*
X0187333Y0404346D03*
X0181333Y0404346D03*
X0161833Y0416654D03*
X0161833Y0423346D03*
X0152333Y0423346D03*
X0152333Y0416654D03*
X0242833Y0383346D03*
X0242833Y0376654D03*
X0252333Y0376654D03*
X0252333Y0383346D03*
X0259333Y0383346D03*
X0265333Y0383346D03*
X0271833Y0383346D03*
X0271833Y0376654D03*
X0265333Y0376654D03*
X0259333Y0376654D03*
X0283333Y0397654D03*
X0289333Y0397654D03*
X0289333Y0404346D03*
X0283333Y0404346D03*
X0263833Y0416654D03*
X0263833Y0423346D03*
X0254333Y0423346D03*
X0254333Y0416654D03*
X0344833Y0383346D03*
X0344833Y0376654D03*
X0354333Y0376654D03*
X0354333Y0383346D03*
X0361333Y0383346D03*
X0367333Y0383346D03*
X0373833Y0383346D03*
X0373833Y0376654D03*
X0367333Y0376654D03*
X0361333Y0376654D03*
X0385333Y0397654D03*
X0391333Y0397654D03*
X0391333Y0404346D03*
X0385333Y0404346D03*
X0365833Y0416654D03*
X0365833Y0423346D03*
X0356333Y0423346D03*
X0356333Y0416654D03*
X0446833Y0383346D03*
X0446833Y0376654D03*
X0456333Y0376654D03*
X0456333Y0383346D03*
X0463333Y0383346D03*
X0469333Y0383346D03*
X0475833Y0383346D03*
X0475833Y0376654D03*
X0469333Y0376654D03*
X0463333Y0376654D03*
X0487333Y0397654D03*
X0493333Y0397654D03*
X0493333Y0404346D03*
X0487333Y0404346D03*
X0467833Y0416654D03*
X0467833Y0423346D03*
X0458333Y0423346D03*
X0458333Y0416654D03*
X0458333Y0321346D03*
X0458333Y0314654D03*
X0467833Y0314654D03*
X0467833Y0321346D03*
X0487333Y0302346D03*
X0493333Y0302346D03*
X0493333Y0295654D03*
X0487333Y0295654D03*
X0475833Y0281346D03*
X0469333Y0281346D03*
X0463333Y0281346D03*
X0456333Y0281346D03*
X0446833Y0281346D03*
X0446833Y0274654D03*
X0456333Y0274654D03*
X0463333Y0274654D03*
X0469333Y0274654D03*
X0475833Y0274654D03*
X0467833Y0219346D03*
X0458333Y0219346D03*
X0458333Y0212654D03*
X0467833Y0212654D03*
X0487333Y0200346D03*
X0493333Y0200346D03*
X0493333Y0193654D03*
X0487333Y0193654D03*
X0475833Y0179346D03*
X0469333Y0179346D03*
X0463333Y0179346D03*
X0463333Y0172654D03*
X0469333Y0172654D03*
X0475833Y0172654D03*
X0456333Y0172654D03*
X0456333Y0179346D03*
X0446833Y0179346D03*
X0446833Y0172654D03*
X0391333Y0193654D03*
X0385333Y0193654D03*
X0385333Y0200346D03*
X0391333Y0200346D03*
X0373833Y0179346D03*
X0367333Y0179346D03*
X0361333Y0179346D03*
X0361333Y0172654D03*
X0367333Y0172654D03*
X0373833Y0172654D03*
X0354333Y0172654D03*
X0354333Y0179346D03*
X0344833Y0179346D03*
X0344833Y0172654D03*
X0356333Y0212654D03*
X0365833Y0212654D03*
X0365833Y0219346D03*
X0356333Y0219346D03*
X0354333Y0274654D03*
X0361333Y0274654D03*
X0367333Y0274654D03*
X0373833Y0274654D03*
X0373833Y0281346D03*
X0367333Y0281346D03*
X0361333Y0281346D03*
X0354333Y0281346D03*
X0344833Y0281346D03*
X0344833Y0274654D03*
X0385333Y0295654D03*
X0391333Y0295654D03*
X0391333Y0302346D03*
X0385333Y0302346D03*
X0365833Y0314654D03*
X0365833Y0321346D03*
X0356333Y0321346D03*
X0356333Y0314654D03*
X0289333Y0302346D03*
X0283333Y0302346D03*
X0283333Y0295654D03*
X0289333Y0295654D03*
X0271833Y0281346D03*
X0265333Y0281346D03*
X0259333Y0281346D03*
X0252333Y0281346D03*
X0242833Y0281346D03*
X0242833Y0274654D03*
X0252333Y0274654D03*
X0259333Y0274654D03*
X0265333Y0274654D03*
X0271833Y0274654D03*
X0263833Y0314654D03*
X0263833Y0321346D03*
X0254333Y0321346D03*
X0254333Y0314654D03*
X0187333Y0302346D03*
X0181333Y0302346D03*
X0181333Y0295654D03*
X0187333Y0295654D03*
X0169833Y0281346D03*
X0163333Y0281346D03*
X0157333Y0281346D03*
X0157333Y0274654D03*
X0163333Y0274654D03*
X0169833Y0274654D03*
X0150333Y0274654D03*
X0140833Y0274654D03*
X0140833Y0281346D03*
X0150333Y0281346D03*
X0152333Y0314654D03*
X0152333Y0321346D03*
X0161833Y0321346D03*
X0161833Y0314654D03*
X0161833Y0219346D03*
X0152333Y0219346D03*
X0152333Y0212654D03*
X0161833Y0212654D03*
X0181333Y0200346D03*
X0187333Y0200346D03*
X0187333Y0193654D03*
X0181333Y0193654D03*
X0169833Y0179346D03*
X0163333Y0179346D03*
X0157333Y0179346D03*
X0157333Y0172654D03*
X0163333Y0172654D03*
X0169833Y0172654D03*
X0150333Y0172654D03*
X0150333Y0179346D03*
X0140833Y0179346D03*
X0140833Y0172654D03*
X0152333Y0117346D03*
X0152333Y0110654D03*
X0161833Y0110654D03*
X0161833Y0117346D03*
X0181333Y0098346D03*
X0187333Y0098346D03*
X0187333Y0091654D03*
X0181333Y0091654D03*
X0169833Y0077346D03*
X0163333Y0077346D03*
X0157333Y0077346D03*
X0157333Y0070654D03*
X0163333Y0070654D03*
X0169833Y0070654D03*
X0150333Y0070654D03*
X0150333Y0077346D03*
X0140833Y0077346D03*
X0140833Y0070654D03*
X0242833Y0070654D03*
X0242833Y0077346D03*
X0252333Y0077346D03*
X0252333Y0070654D03*
X0259333Y0070654D03*
X0265333Y0070654D03*
X0271833Y0070654D03*
X0271833Y0077346D03*
X0265333Y0077346D03*
X0259333Y0077346D03*
X0283333Y0091654D03*
X0289333Y0091654D03*
X0289333Y0098346D03*
X0283333Y0098346D03*
X0263833Y0110654D03*
X0263833Y0117346D03*
X0254333Y0117346D03*
X0254333Y0110654D03*
X0252333Y0172654D03*
X0252333Y0179346D03*
X0259333Y0179346D03*
X0265333Y0179346D03*
X0271833Y0179346D03*
X0271833Y0172654D03*
X0265333Y0172654D03*
X0259333Y0172654D03*
X0242833Y0172654D03*
X0242833Y0179346D03*
X0254333Y0212654D03*
X0254333Y0219346D03*
X0263833Y0219346D03*
X0263833Y0212654D03*
X0283333Y0200346D03*
X0289333Y0200346D03*
X0289333Y0193654D03*
X0283333Y0193654D03*
X0356333Y0117346D03*
X0356333Y0110654D03*
X0365833Y0110654D03*
X0365833Y0117346D03*
X0385333Y0098346D03*
X0391333Y0098346D03*
X0391333Y0091654D03*
X0385333Y0091654D03*
X0373833Y0077346D03*
X0367333Y0077346D03*
X0361333Y0077346D03*
X0361333Y0070654D03*
X0367333Y0070654D03*
X0373833Y0070654D03*
X0354333Y0070654D03*
X0354333Y0077346D03*
X0344833Y0077346D03*
X0344833Y0070654D03*
X0446833Y0070654D03*
X0446833Y0077346D03*
X0456333Y0077346D03*
X0456333Y0070654D03*
X0463333Y0070654D03*
X0469333Y0070654D03*
X0475833Y0070654D03*
X0475833Y0077346D03*
X0469333Y0077346D03*
X0463333Y0077346D03*
X0487333Y0091654D03*
X0493333Y0091654D03*
X0493333Y0098346D03*
X0487333Y0098346D03*
X0467833Y0110654D03*
X0467833Y0117346D03*
X0458333Y0117346D03*
X0458333Y0110654D03*
D13*
X0425413Y0116627D02*
X0425413Y0119373D01*
X0428159Y0119373D01*
X0428159Y0116627D01*
X0425413Y0116627D01*
X0425413Y0118517D02*
X0428159Y0118517D01*
X0418508Y0119373D02*
X0418508Y0116627D01*
X0418508Y0119373D02*
X0421254Y0119373D01*
X0421254Y0116627D01*
X0418508Y0116627D01*
X0418508Y0118517D02*
X0421254Y0118517D01*
X0323413Y0119373D02*
X0323413Y0116627D01*
X0323413Y0119373D02*
X0326159Y0119373D01*
X0326159Y0116627D01*
X0323413Y0116627D01*
X0323413Y0118517D02*
X0326159Y0118517D01*
X0316508Y0119373D02*
X0316508Y0116627D01*
X0316508Y0119373D02*
X0319254Y0119373D01*
X0319254Y0116627D01*
X0316508Y0116627D01*
X0316508Y0118517D02*
X0319254Y0118517D01*
X0221413Y0119373D02*
X0221413Y0116627D01*
X0221413Y0119373D02*
X0224159Y0119373D01*
X0224159Y0116627D01*
X0221413Y0116627D01*
X0221413Y0118517D02*
X0224159Y0118517D01*
X0214508Y0119373D02*
X0214508Y0116627D01*
X0214508Y0119373D02*
X0217254Y0119373D01*
X0217254Y0116627D01*
X0214508Y0116627D01*
X0214508Y0118517D02*
X0217254Y0118517D01*
X0119413Y0119373D02*
X0119413Y0116627D01*
X0119413Y0119373D02*
X0122159Y0119373D01*
X0122159Y0116627D01*
X0119413Y0116627D01*
X0119413Y0118517D02*
X0122159Y0118517D01*
X0112508Y0119373D02*
X0112508Y0116627D01*
X0112508Y0119373D02*
X0115254Y0119373D01*
X0115254Y0116627D01*
X0112508Y0116627D01*
X0112508Y0118517D02*
X0115254Y0118517D01*
X0112508Y0218627D02*
X0112508Y0221373D01*
X0115254Y0221373D01*
X0115254Y0218627D01*
X0112508Y0218627D01*
X0112508Y0220517D02*
X0115254Y0220517D01*
X0119413Y0221373D02*
X0119413Y0218627D01*
X0119413Y0221373D02*
X0122159Y0221373D01*
X0122159Y0218627D01*
X0119413Y0218627D01*
X0119413Y0220517D02*
X0122159Y0220517D01*
X0214508Y0221373D02*
X0214508Y0218627D01*
X0214508Y0221373D02*
X0217254Y0221373D01*
X0217254Y0218627D01*
X0214508Y0218627D01*
X0214508Y0220517D02*
X0217254Y0220517D01*
X0221413Y0221373D02*
X0221413Y0218627D01*
X0221413Y0221373D02*
X0224159Y0221373D01*
X0224159Y0218627D01*
X0221413Y0218627D01*
X0221413Y0220517D02*
X0224159Y0220517D01*
X0316508Y0221373D02*
X0316508Y0218627D01*
X0316508Y0221373D02*
X0319254Y0221373D01*
X0319254Y0218627D01*
X0316508Y0218627D01*
X0316508Y0220517D02*
X0319254Y0220517D01*
X0323413Y0221373D02*
X0323413Y0218627D01*
X0323413Y0221373D02*
X0326159Y0221373D01*
X0326159Y0218627D01*
X0323413Y0218627D01*
X0323413Y0220517D02*
X0326159Y0220517D01*
X0418508Y0221373D02*
X0418508Y0218627D01*
X0418508Y0221373D02*
X0421254Y0221373D01*
X0421254Y0218627D01*
X0418508Y0218627D01*
X0418508Y0220517D02*
X0421254Y0220517D01*
X0425413Y0221373D02*
X0425413Y0218627D01*
X0425413Y0221373D02*
X0428159Y0221373D01*
X0428159Y0218627D01*
X0425413Y0218627D01*
X0425413Y0220517D02*
X0428159Y0220517D01*
X0425413Y0320627D02*
X0425413Y0323373D01*
X0428159Y0323373D01*
X0428159Y0320627D01*
X0425413Y0320627D01*
X0425413Y0322517D02*
X0428159Y0322517D01*
X0418508Y0323373D02*
X0418508Y0320627D01*
X0418508Y0323373D02*
X0421254Y0323373D01*
X0421254Y0320627D01*
X0418508Y0320627D01*
X0418508Y0322517D02*
X0421254Y0322517D01*
X0323413Y0323373D02*
X0323413Y0320627D01*
X0323413Y0323373D02*
X0326159Y0323373D01*
X0326159Y0320627D01*
X0323413Y0320627D01*
X0323413Y0322517D02*
X0326159Y0322517D01*
X0316508Y0323373D02*
X0316508Y0320627D01*
X0316508Y0323373D02*
X0319254Y0323373D01*
X0319254Y0320627D01*
X0316508Y0320627D01*
X0316508Y0322517D02*
X0319254Y0322517D01*
X0221413Y0323373D02*
X0221413Y0320627D01*
X0221413Y0323373D02*
X0224159Y0323373D01*
X0224159Y0320627D01*
X0221413Y0320627D01*
X0221413Y0322517D02*
X0224159Y0322517D01*
X0214508Y0323373D02*
X0214508Y0320627D01*
X0214508Y0323373D02*
X0217254Y0323373D01*
X0217254Y0320627D01*
X0214508Y0320627D01*
X0214508Y0322517D02*
X0217254Y0322517D01*
X0119413Y0323373D02*
X0119413Y0320627D01*
X0119413Y0323373D02*
X0122159Y0323373D01*
X0122159Y0320627D01*
X0119413Y0320627D01*
X0119413Y0322517D02*
X0122159Y0322517D01*
X0112508Y0323373D02*
X0112508Y0320627D01*
X0112508Y0323373D02*
X0115254Y0323373D01*
X0115254Y0320627D01*
X0112508Y0320627D01*
X0112508Y0322517D02*
X0115254Y0322517D01*
X0112508Y0422627D02*
X0112508Y0425373D01*
X0115254Y0425373D01*
X0115254Y0422627D01*
X0112508Y0422627D01*
X0112508Y0424517D02*
X0115254Y0424517D01*
X0119413Y0425373D02*
X0119413Y0422627D01*
X0119413Y0425373D02*
X0122159Y0425373D01*
X0122159Y0422627D01*
X0119413Y0422627D01*
X0119413Y0424517D02*
X0122159Y0424517D01*
X0214508Y0425373D02*
X0214508Y0422627D01*
X0214508Y0425373D02*
X0217254Y0425373D01*
X0217254Y0422627D01*
X0214508Y0422627D01*
X0214508Y0424517D02*
X0217254Y0424517D01*
X0221413Y0425373D02*
X0221413Y0422627D01*
X0221413Y0425373D02*
X0224159Y0425373D01*
X0224159Y0422627D01*
X0221413Y0422627D01*
X0221413Y0424517D02*
X0224159Y0424517D01*
X0316508Y0425373D02*
X0316508Y0422627D01*
X0316508Y0425373D02*
X0319254Y0425373D01*
X0319254Y0422627D01*
X0316508Y0422627D01*
X0316508Y0424517D02*
X0319254Y0424517D01*
X0323413Y0425373D02*
X0323413Y0422627D01*
X0323413Y0425373D02*
X0326159Y0425373D01*
X0326159Y0422627D01*
X0323413Y0422627D01*
X0323413Y0424517D02*
X0326159Y0424517D01*
X0418508Y0425373D02*
X0418508Y0422627D01*
X0418508Y0425373D02*
X0421254Y0425373D01*
X0421254Y0422627D01*
X0418508Y0422627D01*
X0418508Y0424517D02*
X0421254Y0424517D01*
X0425413Y0425373D02*
X0425413Y0422627D01*
X0425413Y0425373D02*
X0428159Y0425373D01*
X0428159Y0422627D01*
X0425413Y0422627D01*
X0425413Y0424517D02*
X0428159Y0424517D01*
D14*
X0427180Y0418500D03*
X0420487Y0418500D03*
X0325180Y0418500D03*
X0318487Y0418500D03*
X0223180Y0418500D03*
X0216487Y0418500D03*
X0121180Y0418500D03*
X0114487Y0418500D03*
X0114487Y0316500D03*
X0121180Y0316500D03*
X0216487Y0316500D03*
X0223180Y0316500D03*
X0318487Y0316500D03*
X0325180Y0316500D03*
X0420487Y0316500D03*
X0427180Y0316500D03*
X0427180Y0214500D03*
X0420487Y0214500D03*
X0325180Y0214500D03*
X0318487Y0214500D03*
X0223180Y0214500D03*
X0216487Y0214500D03*
X0121180Y0214500D03*
X0114487Y0214500D03*
X0114487Y0112500D03*
X0121180Y0112500D03*
X0216487Y0112500D03*
X0223180Y0112500D03*
X0318487Y0112500D03*
X0325180Y0112500D03*
X0420487Y0112500D03*
X0427180Y0112500D03*
D15*
X0444333Y0140000D03*
X0454333Y0140000D03*
X0464333Y0140000D03*
X0474333Y0140000D03*
X0484333Y0140000D03*
X0484333Y0151500D03*
X0494333Y0151500D03*
X0474333Y0151500D03*
X0464333Y0151500D03*
X0454333Y0151500D03*
X0444333Y0151500D03*
X0434333Y0151500D03*
X0392333Y0151500D03*
X0382333Y0151500D03*
X0372333Y0151500D03*
X0362333Y0151500D03*
X0352333Y0151500D03*
X0342333Y0151500D03*
X0332333Y0151500D03*
X0342333Y0140000D03*
X0352333Y0140000D03*
X0362333Y0140000D03*
X0372333Y0140000D03*
X0382333Y0140000D03*
X0290333Y0151500D03*
X0280333Y0151500D03*
X0270333Y0151500D03*
X0260333Y0151500D03*
X0250333Y0151500D03*
X0240333Y0151500D03*
X0230333Y0151500D03*
X0240333Y0140000D03*
X0250333Y0140000D03*
X0260333Y0140000D03*
X0270333Y0140000D03*
X0280333Y0140000D03*
X0188333Y0151500D03*
X0178333Y0151500D03*
X0168333Y0151500D03*
X0158333Y0151500D03*
X0148333Y0151500D03*
X0138333Y0151500D03*
X0128333Y0151500D03*
X0138333Y0140000D03*
X0148333Y0140000D03*
X0158333Y0140000D03*
X0168333Y0140000D03*
X0178333Y0140000D03*
X0178333Y0049500D03*
X0188333Y0049500D03*
X0168333Y0049500D03*
X0158333Y0049500D03*
X0148333Y0049500D03*
X0138333Y0049500D03*
X0128333Y0049500D03*
X0230333Y0049500D03*
X0240333Y0049500D03*
X0250333Y0049500D03*
X0260333Y0049500D03*
X0270333Y0049500D03*
X0280333Y0049500D03*
X0290333Y0049500D03*
X0332333Y0049500D03*
X0342333Y0049500D03*
X0352333Y0049500D03*
X0362333Y0049500D03*
X0372333Y0049500D03*
X0382333Y0049500D03*
X0392333Y0049500D03*
X0434333Y0049500D03*
X0444333Y0049500D03*
X0454333Y0049500D03*
X0464333Y0049500D03*
X0474333Y0049500D03*
X0484333Y0049500D03*
X0494333Y0049500D03*
X0484333Y0242000D03*
X0474333Y0242000D03*
X0464333Y0242000D03*
X0454333Y0242000D03*
X0444333Y0242000D03*
X0444333Y0253500D03*
X0434333Y0253500D03*
X0454333Y0253500D03*
X0464333Y0253500D03*
X0474333Y0253500D03*
X0484333Y0253500D03*
X0494333Y0253500D03*
X0392333Y0253500D03*
X0382333Y0253500D03*
X0372333Y0253500D03*
X0362333Y0253500D03*
X0352333Y0253500D03*
X0342333Y0253500D03*
X0332333Y0253500D03*
X0342333Y0242000D03*
X0352333Y0242000D03*
X0362333Y0242000D03*
X0372333Y0242000D03*
X0382333Y0242000D03*
X0290333Y0253500D03*
X0280333Y0253500D03*
X0270333Y0253500D03*
X0260333Y0253500D03*
X0250333Y0253500D03*
X0240333Y0253500D03*
X0230333Y0253500D03*
X0240333Y0242000D03*
X0250333Y0242000D03*
X0260333Y0242000D03*
X0270333Y0242000D03*
X0280333Y0242000D03*
X0188333Y0253500D03*
X0178333Y0253500D03*
X0168333Y0253500D03*
X0158333Y0253500D03*
X0148333Y0253500D03*
X0138333Y0253500D03*
X0128333Y0253500D03*
X0138333Y0242000D03*
X0148333Y0242000D03*
X0158333Y0242000D03*
X0168333Y0242000D03*
X0178333Y0242000D03*
X0178333Y0344000D03*
X0168333Y0344000D03*
X0158333Y0344000D03*
X0148333Y0344000D03*
X0138333Y0344000D03*
X0138333Y0355500D03*
X0148333Y0355500D03*
X0158333Y0355500D03*
X0168333Y0355500D03*
X0178333Y0355500D03*
X0188333Y0355500D03*
X0230333Y0355500D03*
X0240333Y0355500D03*
X0250333Y0355500D03*
X0260333Y0355500D03*
X0270333Y0355500D03*
X0280333Y0355500D03*
X0290333Y0355500D03*
X0280333Y0344000D03*
X0270333Y0344000D03*
X0260333Y0344000D03*
X0250333Y0344000D03*
X0240333Y0344000D03*
X0332333Y0355500D03*
X0342333Y0355500D03*
X0352333Y0355500D03*
X0362333Y0355500D03*
X0372333Y0355500D03*
X0382333Y0355500D03*
X0392333Y0355500D03*
X0382333Y0344000D03*
X0372333Y0344000D03*
X0362333Y0344000D03*
X0352333Y0344000D03*
X0342333Y0344000D03*
X0434333Y0355500D03*
X0444333Y0355500D03*
X0454333Y0355500D03*
X0464333Y0355500D03*
X0474333Y0355500D03*
X0484333Y0355500D03*
X0494333Y0355500D03*
X0484333Y0344000D03*
X0474333Y0344000D03*
X0464333Y0344000D03*
X0454333Y0344000D03*
X0444333Y0344000D03*
X0444333Y0446000D03*
X0454333Y0446000D03*
X0464333Y0446000D03*
X0474333Y0446000D03*
X0484333Y0446000D03*
X0382333Y0446000D03*
X0372333Y0446000D03*
X0362333Y0446000D03*
X0352333Y0446000D03*
X0342333Y0446000D03*
X0280333Y0446000D03*
X0270333Y0446000D03*
X0260333Y0446000D03*
X0250333Y0446000D03*
X0240333Y0446000D03*
X0178333Y0446000D03*
X0168333Y0446000D03*
X0158333Y0446000D03*
X0148333Y0446000D03*
X0138333Y0446000D03*
X0128333Y0355500D03*
D16*
X0198333Y0339000D03*
X0300333Y0339000D03*
X0402333Y0339000D03*
X0504333Y0339000D03*
X0504333Y0441000D03*
X0402333Y0441000D03*
X0300333Y0441000D03*
X0198333Y0441000D03*
X0198333Y0237000D03*
X0300333Y0237000D03*
X0402333Y0237000D03*
X0504333Y0237000D03*
X0504333Y0135000D03*
X0402333Y0135000D03*
X0300333Y0135000D03*
X0198333Y0135000D03*
D17*
X0215333Y0140000D03*
X0203333Y0157000D03*
X0113333Y0140000D03*
X0203333Y0055000D03*
X0305333Y0055000D03*
X0317333Y0140000D03*
X0305333Y0157000D03*
X0317333Y0242000D03*
X0305333Y0259000D03*
X0215333Y0242000D03*
X0203333Y0259000D03*
X0113333Y0242000D03*
X0113333Y0344000D03*
X0203333Y0361000D03*
X0215333Y0344000D03*
X0305333Y0361000D03*
X0317333Y0344000D03*
X0407333Y0361000D03*
X0419333Y0344000D03*
X0509333Y0361000D03*
X0419333Y0446000D03*
X0487333Y0459250D03*
X0317333Y0446000D03*
X0215333Y0446000D03*
X0135333Y0459250D03*
X0113333Y0446000D03*
X0407333Y0259000D03*
X0419333Y0242000D03*
X0509333Y0259000D03*
X0509333Y0157000D03*
X0419333Y0140000D03*
X0407333Y0157000D03*
X0407333Y0055000D03*
X0509333Y0055000D03*
D18*
X0505333Y0077193D03*
X0505333Y0113807D03*
X0505333Y0179193D03*
X0505333Y0215807D03*
X0505333Y0281193D03*
X0505333Y0317807D03*
X0505333Y0383193D03*
X0505333Y0419807D03*
X0403333Y0419807D03*
X0403333Y0383193D03*
X0403333Y0317807D03*
X0403333Y0281193D03*
X0403333Y0215807D03*
X0403333Y0179193D03*
X0403333Y0113807D03*
X0403333Y0077193D03*
X0301333Y0077193D03*
X0301333Y0113807D03*
X0301333Y0179193D03*
X0301333Y0215807D03*
X0301333Y0281193D03*
X0301333Y0317807D03*
X0301333Y0383193D03*
X0301333Y0419807D03*
X0199333Y0419807D03*
X0199333Y0383193D03*
X0199333Y0317807D03*
X0199333Y0281193D03*
X0199333Y0215807D03*
X0199333Y0179193D03*
X0199333Y0113807D03*
X0199333Y0077193D03*
D19*
X0158359Y0095026D03*
X0260359Y0095026D03*
X0362359Y0095026D03*
X0464359Y0095026D03*
X0464359Y0197026D03*
X0362359Y0197026D03*
X0260359Y0197026D03*
X0158359Y0197026D03*
X0158359Y0299026D03*
X0260359Y0299026D03*
X0362359Y0299026D03*
X0464359Y0299026D03*
X0464359Y0401026D03*
X0362359Y0401026D03*
X0260359Y0401026D03*
X0158359Y0401026D03*
D20*
X0157084Y0407853D02*
X0157084Y0409231D01*
X0159643Y0409231D02*
X0159643Y0407853D01*
X0162202Y0407853D02*
X0162202Y0409231D01*
X0165210Y0404865D02*
X0166588Y0404865D01*
X0166580Y0402306D02*
X0165202Y0402306D01*
X0165210Y0399746D02*
X0166588Y0399746D01*
X0166588Y0397187D02*
X0165210Y0397187D01*
X0162198Y0394180D02*
X0162198Y0392802D01*
X0159639Y0392802D02*
X0159639Y0394180D01*
X0157080Y0394180D02*
X0157080Y0392802D01*
X0154521Y0392802D02*
X0154521Y0394180D01*
X0151509Y0397187D02*
X0150131Y0397187D01*
X0150131Y0399746D02*
X0151509Y0399746D01*
X0151501Y0402306D02*
X0150123Y0402306D01*
X0150131Y0404865D02*
X0151509Y0404865D01*
X0154517Y0407853D02*
X0154517Y0409231D01*
X0252131Y0404865D02*
X0253509Y0404865D01*
X0253501Y0402306D02*
X0252123Y0402306D01*
X0252131Y0399746D02*
X0253509Y0399746D01*
X0253509Y0397187D02*
X0252131Y0397187D01*
X0256521Y0394180D02*
X0256521Y0392802D01*
X0259080Y0392802D02*
X0259080Y0394180D01*
X0261639Y0394180D02*
X0261639Y0392802D01*
X0264198Y0392802D02*
X0264198Y0394180D01*
X0267210Y0397187D02*
X0268588Y0397187D01*
X0268588Y0399746D02*
X0267210Y0399746D01*
X0267202Y0402306D02*
X0268580Y0402306D01*
X0268588Y0404865D02*
X0267210Y0404865D01*
X0264202Y0407853D02*
X0264202Y0409231D01*
X0261643Y0409231D02*
X0261643Y0407853D01*
X0259084Y0407853D02*
X0259084Y0409231D01*
X0256517Y0409231D02*
X0256517Y0407853D01*
X0354131Y0404865D02*
X0355509Y0404865D01*
X0355501Y0402306D02*
X0354123Y0402306D01*
X0354131Y0399746D02*
X0355509Y0399746D01*
X0355509Y0397187D02*
X0354131Y0397187D01*
X0358521Y0394180D02*
X0358521Y0392802D01*
X0361080Y0392802D02*
X0361080Y0394180D01*
X0363639Y0394180D02*
X0363639Y0392802D01*
X0366198Y0392802D02*
X0366198Y0394180D01*
X0369210Y0397187D02*
X0370588Y0397187D01*
X0370588Y0399746D02*
X0369210Y0399746D01*
X0369202Y0402306D02*
X0370580Y0402306D01*
X0370588Y0404865D02*
X0369210Y0404865D01*
X0366202Y0407853D02*
X0366202Y0409231D01*
X0363643Y0409231D02*
X0363643Y0407853D01*
X0361084Y0407853D02*
X0361084Y0409231D01*
X0358517Y0409231D02*
X0358517Y0407853D01*
X0456131Y0404865D02*
X0457509Y0404865D01*
X0457501Y0402306D02*
X0456123Y0402306D01*
X0456131Y0399746D02*
X0457509Y0399746D01*
X0457509Y0397187D02*
X0456131Y0397187D01*
X0460521Y0394180D02*
X0460521Y0392802D01*
X0463080Y0392802D02*
X0463080Y0394180D01*
X0465639Y0394180D02*
X0465639Y0392802D01*
X0468198Y0392802D02*
X0468198Y0394180D01*
X0471210Y0397187D02*
X0472588Y0397187D01*
X0472588Y0399746D02*
X0471210Y0399746D01*
X0471202Y0402306D02*
X0472580Y0402306D01*
X0472588Y0404865D02*
X0471210Y0404865D01*
X0468202Y0407853D02*
X0468202Y0409231D01*
X0465643Y0409231D02*
X0465643Y0407853D01*
X0463084Y0407853D02*
X0463084Y0409231D01*
X0460517Y0409231D02*
X0460517Y0407853D01*
X0460517Y0307231D02*
X0460517Y0305853D01*
X0463084Y0305853D02*
X0463084Y0307231D01*
X0465643Y0307231D02*
X0465643Y0305853D01*
X0468202Y0305853D02*
X0468202Y0307231D01*
X0471210Y0302865D02*
X0472588Y0302865D01*
X0472580Y0300306D02*
X0471202Y0300306D01*
X0471210Y0297746D02*
X0472588Y0297746D01*
X0472588Y0295187D02*
X0471210Y0295187D01*
X0468198Y0292180D02*
X0468198Y0290802D01*
X0465639Y0290802D02*
X0465639Y0292180D01*
X0463080Y0292180D02*
X0463080Y0290802D01*
X0460521Y0290802D02*
X0460521Y0292180D01*
X0457509Y0295187D02*
X0456131Y0295187D01*
X0456131Y0297746D02*
X0457509Y0297746D01*
X0457501Y0300306D02*
X0456123Y0300306D01*
X0456131Y0302865D02*
X0457509Y0302865D01*
X0370588Y0302865D02*
X0369210Y0302865D01*
X0369202Y0300306D02*
X0370580Y0300306D01*
X0370588Y0297746D02*
X0369210Y0297746D01*
X0369210Y0295187D02*
X0370588Y0295187D01*
X0366198Y0292180D02*
X0366198Y0290802D01*
X0363639Y0290802D02*
X0363639Y0292180D01*
X0361080Y0292180D02*
X0361080Y0290802D01*
X0358521Y0290802D02*
X0358521Y0292180D01*
X0355509Y0295187D02*
X0354131Y0295187D01*
X0354131Y0297746D02*
X0355509Y0297746D01*
X0355501Y0300306D02*
X0354123Y0300306D01*
X0354131Y0302865D02*
X0355509Y0302865D01*
X0358517Y0305853D02*
X0358517Y0307231D01*
X0361084Y0307231D02*
X0361084Y0305853D01*
X0363643Y0305853D02*
X0363643Y0307231D01*
X0366202Y0307231D02*
X0366202Y0305853D01*
X0268588Y0302865D02*
X0267210Y0302865D01*
X0267202Y0300306D02*
X0268580Y0300306D01*
X0268588Y0297746D02*
X0267210Y0297746D01*
X0267210Y0295187D02*
X0268588Y0295187D01*
X0264198Y0292180D02*
X0264198Y0290802D01*
X0261639Y0290802D02*
X0261639Y0292180D01*
X0259080Y0292180D02*
X0259080Y0290802D01*
X0256521Y0290802D02*
X0256521Y0292180D01*
X0253509Y0295187D02*
X0252131Y0295187D01*
X0252131Y0297746D02*
X0253509Y0297746D01*
X0253501Y0300306D02*
X0252123Y0300306D01*
X0252131Y0302865D02*
X0253509Y0302865D01*
X0256517Y0305853D02*
X0256517Y0307231D01*
X0259084Y0307231D02*
X0259084Y0305853D01*
X0261643Y0305853D02*
X0261643Y0307231D01*
X0264202Y0307231D02*
X0264202Y0305853D01*
X0166588Y0302865D02*
X0165210Y0302865D01*
X0165202Y0300306D02*
X0166580Y0300306D01*
X0166588Y0297746D02*
X0165210Y0297746D01*
X0165210Y0295187D02*
X0166588Y0295187D01*
X0162198Y0292180D02*
X0162198Y0290802D01*
X0159639Y0290802D02*
X0159639Y0292180D01*
X0157080Y0292180D02*
X0157080Y0290802D01*
X0154521Y0290802D02*
X0154521Y0292180D01*
X0151509Y0295187D02*
X0150131Y0295187D01*
X0150131Y0297746D02*
X0151509Y0297746D01*
X0151501Y0300306D02*
X0150123Y0300306D01*
X0150131Y0302865D02*
X0151509Y0302865D01*
X0154517Y0305853D02*
X0154517Y0307231D01*
X0157084Y0307231D02*
X0157084Y0305853D01*
X0159643Y0305853D02*
X0159643Y0307231D01*
X0162202Y0307231D02*
X0162202Y0305853D01*
X0162202Y0205231D02*
X0162202Y0203853D01*
X0159643Y0203853D02*
X0159643Y0205231D01*
X0157084Y0205231D02*
X0157084Y0203853D01*
X0154517Y0203853D02*
X0154517Y0205231D01*
X0151509Y0200865D02*
X0150131Y0200865D01*
X0150123Y0198306D02*
X0151501Y0198306D01*
X0151509Y0195746D02*
X0150131Y0195746D01*
X0150131Y0193187D02*
X0151509Y0193187D01*
X0154521Y0190180D02*
X0154521Y0188802D01*
X0157080Y0188802D02*
X0157080Y0190180D01*
X0159639Y0190180D02*
X0159639Y0188802D01*
X0162198Y0188802D02*
X0162198Y0190180D01*
X0165210Y0193187D02*
X0166588Y0193187D01*
X0166588Y0195746D02*
X0165210Y0195746D01*
X0165202Y0198306D02*
X0166580Y0198306D01*
X0166588Y0200865D02*
X0165210Y0200865D01*
X0252131Y0200865D02*
X0253509Y0200865D01*
X0253501Y0198306D02*
X0252123Y0198306D01*
X0252131Y0195746D02*
X0253509Y0195746D01*
X0253509Y0193187D02*
X0252131Y0193187D01*
X0256521Y0190180D02*
X0256521Y0188802D01*
X0259080Y0188802D02*
X0259080Y0190180D01*
X0261639Y0190180D02*
X0261639Y0188802D01*
X0264198Y0188802D02*
X0264198Y0190180D01*
X0267210Y0193187D02*
X0268588Y0193187D01*
X0268588Y0195746D02*
X0267210Y0195746D01*
X0267202Y0198306D02*
X0268580Y0198306D01*
X0268588Y0200865D02*
X0267210Y0200865D01*
X0264202Y0203853D02*
X0264202Y0205231D01*
X0261643Y0205231D02*
X0261643Y0203853D01*
X0259084Y0203853D02*
X0259084Y0205231D01*
X0256517Y0205231D02*
X0256517Y0203853D01*
X0354131Y0200865D02*
X0355509Y0200865D01*
X0355501Y0198306D02*
X0354123Y0198306D01*
X0354131Y0195746D02*
X0355509Y0195746D01*
X0355509Y0193187D02*
X0354131Y0193187D01*
X0358521Y0190180D02*
X0358521Y0188802D01*
X0361080Y0188802D02*
X0361080Y0190180D01*
X0363639Y0190180D02*
X0363639Y0188802D01*
X0366198Y0188802D02*
X0366198Y0190180D01*
X0369210Y0193187D02*
X0370588Y0193187D01*
X0370588Y0195746D02*
X0369210Y0195746D01*
X0369202Y0198306D02*
X0370580Y0198306D01*
X0370588Y0200865D02*
X0369210Y0200865D01*
X0366202Y0203853D02*
X0366202Y0205231D01*
X0363643Y0205231D02*
X0363643Y0203853D01*
X0361084Y0203853D02*
X0361084Y0205231D01*
X0358517Y0205231D02*
X0358517Y0203853D01*
X0456131Y0200865D02*
X0457509Y0200865D01*
X0457501Y0198306D02*
X0456123Y0198306D01*
X0456131Y0195746D02*
X0457509Y0195746D01*
X0457509Y0193187D02*
X0456131Y0193187D01*
X0460521Y0190180D02*
X0460521Y0188802D01*
X0463080Y0188802D02*
X0463080Y0190180D01*
X0465639Y0190180D02*
X0465639Y0188802D01*
X0468198Y0188802D02*
X0468198Y0190180D01*
X0471210Y0193187D02*
X0472588Y0193187D01*
X0472588Y0195746D02*
X0471210Y0195746D01*
X0471202Y0198306D02*
X0472580Y0198306D01*
X0472588Y0200865D02*
X0471210Y0200865D01*
X0468202Y0203853D02*
X0468202Y0205231D01*
X0465643Y0205231D02*
X0465643Y0203853D01*
X0463084Y0203853D02*
X0463084Y0205231D01*
X0460517Y0205231D02*
X0460517Y0203853D01*
X0460517Y0103231D02*
X0460517Y0101853D01*
X0463084Y0101853D02*
X0463084Y0103231D01*
X0465643Y0103231D02*
X0465643Y0101853D01*
X0468202Y0101853D02*
X0468202Y0103231D01*
X0471210Y0098865D02*
X0472588Y0098865D01*
X0472580Y0096306D02*
X0471202Y0096306D01*
X0471210Y0093746D02*
X0472588Y0093746D01*
X0472588Y0091187D02*
X0471210Y0091187D01*
X0468198Y0088180D02*
X0468198Y0086802D01*
X0465639Y0086802D02*
X0465639Y0088180D01*
X0463080Y0088180D02*
X0463080Y0086802D01*
X0460521Y0086802D02*
X0460521Y0088180D01*
X0457509Y0091187D02*
X0456131Y0091187D01*
X0456131Y0093746D02*
X0457509Y0093746D01*
X0457501Y0096306D02*
X0456123Y0096306D01*
X0456131Y0098865D02*
X0457509Y0098865D01*
X0370588Y0098865D02*
X0369210Y0098865D01*
X0369202Y0096306D02*
X0370580Y0096306D01*
X0370588Y0093746D02*
X0369210Y0093746D01*
X0369210Y0091187D02*
X0370588Y0091187D01*
X0366198Y0088180D02*
X0366198Y0086802D01*
X0363639Y0086802D02*
X0363639Y0088180D01*
X0361080Y0088180D02*
X0361080Y0086802D01*
X0358521Y0086802D02*
X0358521Y0088180D01*
X0355509Y0091187D02*
X0354131Y0091187D01*
X0354131Y0093746D02*
X0355509Y0093746D01*
X0355501Y0096306D02*
X0354123Y0096306D01*
X0354131Y0098865D02*
X0355509Y0098865D01*
X0358517Y0101853D02*
X0358517Y0103231D01*
X0361084Y0103231D02*
X0361084Y0101853D01*
X0363643Y0101853D02*
X0363643Y0103231D01*
X0366202Y0103231D02*
X0366202Y0101853D01*
X0268588Y0098865D02*
X0267210Y0098865D01*
X0267202Y0096306D02*
X0268580Y0096306D01*
X0268588Y0093746D02*
X0267210Y0093746D01*
X0267210Y0091187D02*
X0268588Y0091187D01*
X0264198Y0088180D02*
X0264198Y0086802D01*
X0261639Y0086802D02*
X0261639Y0088180D01*
X0259080Y0088180D02*
X0259080Y0086802D01*
X0256521Y0086802D02*
X0256521Y0088180D01*
X0253509Y0091187D02*
X0252131Y0091187D01*
X0252131Y0093746D02*
X0253509Y0093746D01*
X0253501Y0096306D02*
X0252123Y0096306D01*
X0252131Y0098865D02*
X0253509Y0098865D01*
X0256517Y0101853D02*
X0256517Y0103231D01*
X0259084Y0103231D02*
X0259084Y0101853D01*
X0261643Y0101853D02*
X0261643Y0103231D01*
X0264202Y0103231D02*
X0264202Y0101853D01*
X0166588Y0098865D02*
X0165210Y0098865D01*
X0165202Y0096306D02*
X0166580Y0096306D01*
X0166588Y0093746D02*
X0165210Y0093746D01*
X0165210Y0091187D02*
X0166588Y0091187D01*
X0162198Y0088180D02*
X0162198Y0086802D01*
X0159639Y0086802D02*
X0159639Y0088180D01*
X0157080Y0088180D02*
X0157080Y0086802D01*
X0154521Y0086802D02*
X0154521Y0088180D01*
X0151509Y0091187D02*
X0150131Y0091187D01*
X0150131Y0093746D02*
X0151509Y0093746D01*
X0151501Y0096306D02*
X0150123Y0096306D01*
X0150131Y0098865D02*
X0151509Y0098865D01*
X0154517Y0101853D02*
X0154517Y0103231D01*
X0157084Y0103231D02*
X0157084Y0101853D01*
X0159643Y0101853D02*
X0159643Y0103231D01*
X0162202Y0103231D02*
X0162202Y0101853D01*
D21*
X0131768Y0036750D02*
X0131770Y0036869D01*
X0131776Y0036988D01*
X0131786Y0037107D01*
X0131800Y0037225D01*
X0131818Y0037343D01*
X0131839Y0037460D01*
X0131865Y0037576D01*
X0131895Y0037692D01*
X0131928Y0037806D01*
X0131965Y0037919D01*
X0132006Y0038031D01*
X0132051Y0038142D01*
X0132099Y0038251D01*
X0132151Y0038358D01*
X0132207Y0038463D01*
X0132266Y0038567D01*
X0132328Y0038668D01*
X0132394Y0038768D01*
X0132463Y0038865D01*
X0132535Y0038959D01*
X0132611Y0039052D01*
X0132689Y0039141D01*
X0132770Y0039228D01*
X0132855Y0039313D01*
X0132942Y0039394D01*
X0133031Y0039472D01*
X0133124Y0039548D01*
X0133218Y0039620D01*
X0133315Y0039689D01*
X0133415Y0039755D01*
X0133516Y0039817D01*
X0133620Y0039876D01*
X0133725Y0039932D01*
X0133832Y0039984D01*
X0133941Y0040032D01*
X0134052Y0040077D01*
X0134164Y0040118D01*
X0134277Y0040155D01*
X0134391Y0040188D01*
X0134507Y0040218D01*
X0134623Y0040244D01*
X0134740Y0040265D01*
X0134858Y0040283D01*
X0134976Y0040297D01*
X0135095Y0040307D01*
X0135214Y0040313D01*
X0135333Y0040315D01*
X0135452Y0040313D01*
X0135571Y0040307D01*
X0135690Y0040297D01*
X0135808Y0040283D01*
X0135926Y0040265D01*
X0136043Y0040244D01*
X0136159Y0040218D01*
X0136275Y0040188D01*
X0136389Y0040155D01*
X0136502Y0040118D01*
X0136614Y0040077D01*
X0136725Y0040032D01*
X0136834Y0039984D01*
X0136941Y0039932D01*
X0137046Y0039876D01*
X0137150Y0039817D01*
X0137251Y0039755D01*
X0137351Y0039689D01*
X0137448Y0039620D01*
X0137542Y0039548D01*
X0137635Y0039472D01*
X0137724Y0039394D01*
X0137811Y0039313D01*
X0137896Y0039228D01*
X0137977Y0039141D01*
X0138055Y0039052D01*
X0138131Y0038959D01*
X0138203Y0038865D01*
X0138272Y0038768D01*
X0138338Y0038668D01*
X0138400Y0038567D01*
X0138459Y0038463D01*
X0138515Y0038358D01*
X0138567Y0038251D01*
X0138615Y0038142D01*
X0138660Y0038031D01*
X0138701Y0037919D01*
X0138738Y0037806D01*
X0138771Y0037692D01*
X0138801Y0037576D01*
X0138827Y0037460D01*
X0138848Y0037343D01*
X0138866Y0037225D01*
X0138880Y0037107D01*
X0138890Y0036988D01*
X0138896Y0036869D01*
X0138898Y0036750D01*
X0138896Y0036631D01*
X0138890Y0036512D01*
X0138880Y0036393D01*
X0138866Y0036275D01*
X0138848Y0036157D01*
X0138827Y0036040D01*
X0138801Y0035924D01*
X0138771Y0035808D01*
X0138738Y0035694D01*
X0138701Y0035581D01*
X0138660Y0035469D01*
X0138615Y0035358D01*
X0138567Y0035249D01*
X0138515Y0035142D01*
X0138459Y0035037D01*
X0138400Y0034933D01*
X0138338Y0034832D01*
X0138272Y0034732D01*
X0138203Y0034635D01*
X0138131Y0034541D01*
X0138055Y0034448D01*
X0137977Y0034359D01*
X0137896Y0034272D01*
X0137811Y0034187D01*
X0137724Y0034106D01*
X0137635Y0034028D01*
X0137542Y0033952D01*
X0137448Y0033880D01*
X0137351Y0033811D01*
X0137251Y0033745D01*
X0137150Y0033683D01*
X0137046Y0033624D01*
X0136941Y0033568D01*
X0136834Y0033516D01*
X0136725Y0033468D01*
X0136614Y0033423D01*
X0136502Y0033382D01*
X0136389Y0033345D01*
X0136275Y0033312D01*
X0136159Y0033282D01*
X0136043Y0033256D01*
X0135926Y0033235D01*
X0135808Y0033217D01*
X0135690Y0033203D01*
X0135571Y0033193D01*
X0135452Y0033187D01*
X0135333Y0033185D01*
X0135214Y0033187D01*
X0135095Y0033193D01*
X0134976Y0033203D01*
X0134858Y0033217D01*
X0134740Y0033235D01*
X0134623Y0033256D01*
X0134507Y0033282D01*
X0134391Y0033312D01*
X0134277Y0033345D01*
X0134164Y0033382D01*
X0134052Y0033423D01*
X0133941Y0033468D01*
X0133832Y0033516D01*
X0133725Y0033568D01*
X0133620Y0033624D01*
X0133516Y0033683D01*
X0133415Y0033745D01*
X0133315Y0033811D01*
X0133218Y0033880D01*
X0133124Y0033952D01*
X0133031Y0034028D01*
X0132942Y0034106D01*
X0132855Y0034187D01*
X0132770Y0034272D01*
X0132689Y0034359D01*
X0132611Y0034448D01*
X0132535Y0034541D01*
X0132463Y0034635D01*
X0132394Y0034732D01*
X0132328Y0034832D01*
X0132266Y0034933D01*
X0132207Y0035037D01*
X0132151Y0035142D01*
X0132099Y0035249D01*
X0132051Y0035358D01*
X0132006Y0035469D01*
X0131965Y0035581D01*
X0131928Y0035694D01*
X0131895Y0035808D01*
X0131865Y0035924D01*
X0131839Y0036040D01*
X0131818Y0036157D01*
X0131800Y0036275D01*
X0131786Y0036393D01*
X0131776Y0036512D01*
X0131770Y0036631D01*
X0131768Y0036750D01*
D22*
X0135333Y0036750D03*
M02*
