G75*
%MOIN*%
%OFA0B0*%
%FSLAX25Y25*%
%IPPOS*%
%LPD*%
%AMOC8*
5,1,8,0,0,1.08239X$1,22.5*
%
%ADD10R,0.03300X0.05800*%
%ADD11C,0.08200*%
%ADD12C,0.00500*%
%ADD13C,0.12800*%
%ADD14C,0.04737*%
D10*
X0136733Y0071500D03*
X0139933Y0071500D03*
X0154333Y0071500D03*
X0158333Y0071500D03*
X0162333Y0071500D03*
X0174633Y0071500D03*
X0177833Y0071500D03*
X0184733Y0071500D03*
X0187933Y0071500D03*
X0238733Y0071500D03*
X0241933Y0071500D03*
X0256333Y0071500D03*
X0260333Y0071500D03*
X0264333Y0071500D03*
X0276633Y0071500D03*
X0279833Y0071500D03*
X0286733Y0071500D03*
X0289933Y0071500D03*
X0340733Y0071500D03*
X0343933Y0071500D03*
X0358333Y0071500D03*
X0362333Y0071500D03*
X0366333Y0071500D03*
X0378633Y0071500D03*
X0381833Y0071500D03*
X0388733Y0071500D03*
X0391933Y0071500D03*
X0442733Y0071500D03*
X0445933Y0071500D03*
X0460333Y0071500D03*
X0464333Y0071500D03*
X0468333Y0071500D03*
X0480633Y0071500D03*
X0483833Y0071500D03*
X0490733Y0071500D03*
X0493933Y0071500D03*
X0493933Y0173500D03*
X0490733Y0173500D03*
X0483833Y0173500D03*
X0480633Y0173500D03*
X0468333Y0173500D03*
X0464333Y0173500D03*
X0460333Y0173500D03*
X0445933Y0173500D03*
X0442733Y0173500D03*
X0391933Y0173500D03*
X0388733Y0173500D03*
X0381833Y0173500D03*
X0378633Y0173500D03*
X0366333Y0173500D03*
X0362333Y0173500D03*
X0358333Y0173500D03*
X0343933Y0173500D03*
X0340733Y0173500D03*
X0289933Y0173500D03*
X0286733Y0173500D03*
X0279833Y0173500D03*
X0276633Y0173500D03*
X0264333Y0173500D03*
X0260333Y0173500D03*
X0256333Y0173500D03*
X0241933Y0173500D03*
X0238733Y0173500D03*
X0187933Y0173500D03*
X0184733Y0173500D03*
X0177833Y0173500D03*
X0174633Y0173500D03*
X0162333Y0173500D03*
X0158333Y0173500D03*
X0154333Y0173500D03*
X0139933Y0173500D03*
X0136733Y0173500D03*
X0136733Y0275500D03*
X0139933Y0275500D03*
X0154333Y0275500D03*
X0158333Y0275500D03*
X0162333Y0275500D03*
X0174633Y0275500D03*
X0177833Y0275500D03*
X0184733Y0275500D03*
X0187933Y0275500D03*
X0238733Y0275500D03*
X0241933Y0275500D03*
X0256333Y0275500D03*
X0260333Y0275500D03*
X0264333Y0275500D03*
X0276633Y0275500D03*
X0279833Y0275500D03*
X0286733Y0275500D03*
X0289933Y0275500D03*
X0340733Y0275500D03*
X0343933Y0275500D03*
X0358333Y0275500D03*
X0362333Y0275500D03*
X0366333Y0275500D03*
X0378633Y0275500D03*
X0381833Y0275500D03*
X0388733Y0275500D03*
X0391933Y0275500D03*
X0442733Y0275500D03*
X0445933Y0275500D03*
X0460333Y0275500D03*
X0464333Y0275500D03*
X0468333Y0275500D03*
X0480633Y0275500D03*
X0483833Y0275500D03*
X0490733Y0275500D03*
X0493933Y0275500D03*
X0493933Y0377500D03*
X0490733Y0377500D03*
X0483833Y0377500D03*
X0480633Y0377500D03*
X0468333Y0377500D03*
X0464333Y0377500D03*
X0460333Y0377500D03*
X0445933Y0377500D03*
X0442733Y0377500D03*
X0391933Y0377500D03*
X0388733Y0377500D03*
X0381833Y0377500D03*
X0378633Y0377500D03*
X0366333Y0377500D03*
X0362333Y0377500D03*
X0358333Y0377500D03*
X0343933Y0377500D03*
X0340733Y0377500D03*
X0289933Y0377500D03*
X0286733Y0377500D03*
X0279833Y0377500D03*
X0276633Y0377500D03*
X0264333Y0377500D03*
X0260333Y0377500D03*
X0256333Y0377500D03*
X0241933Y0377500D03*
X0238733Y0377500D03*
X0187933Y0377500D03*
X0184733Y0377500D03*
X0177833Y0377500D03*
X0174633Y0377500D03*
X0162333Y0377500D03*
X0158333Y0377500D03*
X0154333Y0377500D03*
X0139933Y0377500D03*
X0136733Y0377500D03*
D11*
X0128333Y0049500D03*
X0138333Y0049500D03*
X0148333Y0049500D03*
X0158333Y0049500D03*
X0168333Y0049500D03*
X0178333Y0049500D03*
X0188333Y0049500D03*
X0230333Y0049500D03*
X0240333Y0049500D03*
X0250333Y0049500D03*
X0260333Y0049500D03*
X0270333Y0049500D03*
X0280333Y0049500D03*
X0290333Y0049500D03*
X0332333Y0049500D03*
X0342333Y0049500D03*
X0352333Y0049500D03*
X0362333Y0049500D03*
X0372333Y0049500D03*
X0382333Y0049500D03*
X0392333Y0049500D03*
X0434333Y0049500D03*
X0444333Y0049500D03*
X0454333Y0049500D03*
X0464333Y0049500D03*
X0474333Y0049500D03*
X0484333Y0049500D03*
X0494333Y0049500D03*
X0484333Y0140000D03*
X0474333Y0140000D03*
X0464333Y0140000D03*
X0454333Y0140000D03*
X0444333Y0140000D03*
X0444333Y0151500D03*
X0434333Y0151500D03*
X0454333Y0151500D03*
X0464333Y0151500D03*
X0474333Y0151500D03*
X0484333Y0151500D03*
X0494333Y0151500D03*
X0392333Y0151500D03*
X0382333Y0151500D03*
X0372333Y0151500D03*
X0362333Y0151500D03*
X0352333Y0151500D03*
X0342333Y0151500D03*
X0332333Y0151500D03*
X0342333Y0140000D03*
X0352333Y0140000D03*
X0362333Y0140000D03*
X0372333Y0140000D03*
X0382333Y0140000D03*
X0290333Y0151500D03*
X0280333Y0151500D03*
X0270333Y0151500D03*
X0260333Y0151500D03*
X0250333Y0151500D03*
X0240333Y0151500D03*
X0230333Y0151500D03*
X0240333Y0140000D03*
X0250333Y0140000D03*
X0260333Y0140000D03*
X0270333Y0140000D03*
X0280333Y0140000D03*
X0188333Y0151500D03*
X0178333Y0151500D03*
X0168333Y0151500D03*
X0158333Y0151500D03*
X0148333Y0151500D03*
X0138333Y0151500D03*
X0128333Y0151500D03*
X0138333Y0140000D03*
X0148333Y0140000D03*
X0158333Y0140000D03*
X0168333Y0140000D03*
X0178333Y0140000D03*
X0178333Y0242000D03*
X0168333Y0242000D03*
X0158333Y0242000D03*
X0148333Y0242000D03*
X0138333Y0242000D03*
X0138333Y0253500D03*
X0148333Y0253500D03*
X0158333Y0253500D03*
X0168333Y0253500D03*
X0178333Y0253500D03*
X0188333Y0253500D03*
X0230333Y0253500D03*
X0240333Y0253500D03*
X0250333Y0253500D03*
X0260333Y0253500D03*
X0270333Y0253500D03*
X0280333Y0253500D03*
X0290333Y0253500D03*
X0280333Y0242000D03*
X0270333Y0242000D03*
X0260333Y0242000D03*
X0250333Y0242000D03*
X0240333Y0242000D03*
X0332333Y0253500D03*
X0342333Y0253500D03*
X0352333Y0253500D03*
X0362333Y0253500D03*
X0372333Y0253500D03*
X0382333Y0253500D03*
X0392333Y0253500D03*
X0382333Y0242000D03*
X0372333Y0242000D03*
X0362333Y0242000D03*
X0352333Y0242000D03*
X0342333Y0242000D03*
X0434333Y0253500D03*
X0444333Y0253500D03*
X0454333Y0253500D03*
X0464333Y0253500D03*
X0474333Y0253500D03*
X0484333Y0253500D03*
X0494333Y0253500D03*
X0484333Y0242000D03*
X0474333Y0242000D03*
X0464333Y0242000D03*
X0454333Y0242000D03*
X0444333Y0242000D03*
X0444333Y0344000D03*
X0454333Y0344000D03*
X0464333Y0344000D03*
X0474333Y0344000D03*
X0484333Y0344000D03*
X0484333Y0355500D03*
X0494333Y0355500D03*
X0474333Y0355500D03*
X0464333Y0355500D03*
X0454333Y0355500D03*
X0444333Y0355500D03*
X0434333Y0355500D03*
X0392333Y0355500D03*
X0382333Y0355500D03*
X0372333Y0355500D03*
X0362333Y0355500D03*
X0352333Y0355500D03*
X0342333Y0355500D03*
X0332333Y0355500D03*
X0342333Y0344000D03*
X0352333Y0344000D03*
X0362333Y0344000D03*
X0372333Y0344000D03*
X0382333Y0344000D03*
X0290333Y0355500D03*
X0280333Y0355500D03*
X0270333Y0355500D03*
X0260333Y0355500D03*
X0250333Y0355500D03*
X0240333Y0355500D03*
X0230333Y0355500D03*
X0240333Y0344000D03*
X0250333Y0344000D03*
X0260333Y0344000D03*
X0270333Y0344000D03*
X0280333Y0344000D03*
X0188333Y0355500D03*
X0178333Y0355500D03*
X0168333Y0355500D03*
X0158333Y0355500D03*
X0148333Y0355500D03*
X0138333Y0355500D03*
X0128333Y0355500D03*
X0138333Y0344000D03*
X0148333Y0344000D03*
X0158333Y0344000D03*
X0168333Y0344000D03*
X0178333Y0344000D03*
X0128333Y0253500D03*
X0138333Y0446000D03*
X0148333Y0446000D03*
X0158333Y0446000D03*
X0168333Y0446000D03*
X0178333Y0446000D03*
X0240333Y0446000D03*
X0250333Y0446000D03*
X0260333Y0446000D03*
X0270333Y0446000D03*
X0280333Y0446000D03*
X0342333Y0446000D03*
X0352333Y0446000D03*
X0362333Y0446000D03*
X0372333Y0446000D03*
X0382333Y0446000D03*
X0444333Y0446000D03*
X0454333Y0446000D03*
X0464333Y0446000D03*
X0474333Y0446000D03*
X0484333Y0446000D03*
D12*
X0467083Y0378000D02*
X0461583Y0378000D01*
X0461583Y0377000D01*
X0467083Y0377000D01*
X0467083Y0378000D01*
X0467083Y0377507D02*
X0461583Y0377507D01*
X0461583Y0377009D02*
X0467083Y0377009D01*
X0365083Y0377009D02*
X0359583Y0377009D01*
X0359583Y0377000D02*
X0359583Y0378000D01*
X0365083Y0378000D01*
X0365083Y0377000D01*
X0359583Y0377000D01*
X0359583Y0377507D02*
X0365083Y0377507D01*
X0263083Y0377507D02*
X0257583Y0377507D01*
X0257583Y0378000D02*
X0257583Y0377000D01*
X0263083Y0377000D01*
X0263083Y0378000D01*
X0257583Y0378000D01*
X0257583Y0377009D02*
X0263083Y0377009D01*
X0161083Y0377009D02*
X0155583Y0377009D01*
X0155583Y0377000D02*
X0155583Y0378000D01*
X0161083Y0378000D01*
X0161083Y0377000D01*
X0155583Y0377000D01*
X0155583Y0377507D02*
X0161083Y0377507D01*
X0161083Y0276000D02*
X0155583Y0276000D01*
X0155583Y0275000D01*
X0161083Y0275000D01*
X0161083Y0276000D01*
X0161083Y0275811D02*
X0155583Y0275811D01*
X0155583Y0275312D02*
X0161083Y0275312D01*
X0257583Y0275312D02*
X0263083Y0275312D01*
X0263083Y0275000D02*
X0263083Y0276000D01*
X0257583Y0276000D01*
X0257583Y0275000D01*
X0263083Y0275000D01*
X0263083Y0275811D02*
X0257583Y0275811D01*
X0359583Y0275811D02*
X0365083Y0275811D01*
X0365083Y0276000D02*
X0359583Y0276000D01*
X0359583Y0275000D01*
X0365083Y0275000D01*
X0365083Y0276000D01*
X0365083Y0275312D02*
X0359583Y0275312D01*
X0461583Y0275312D02*
X0467083Y0275312D01*
X0467083Y0275000D02*
X0467083Y0276000D01*
X0461583Y0276000D01*
X0461583Y0275000D01*
X0467083Y0275000D01*
X0467083Y0275811D02*
X0461583Y0275811D01*
X0461583Y0174000D02*
X0461583Y0173000D01*
X0467083Y0173000D01*
X0467083Y0174000D01*
X0461583Y0174000D01*
X0461583Y0173616D02*
X0467083Y0173616D01*
X0467083Y0173117D02*
X0461583Y0173117D01*
X0365083Y0173117D02*
X0359583Y0173117D01*
X0359583Y0173000D02*
X0359583Y0174000D01*
X0365083Y0174000D01*
X0365083Y0173000D01*
X0359583Y0173000D01*
X0359583Y0173616D02*
X0365083Y0173616D01*
X0263083Y0173616D02*
X0257583Y0173616D01*
X0257583Y0174000D02*
X0257583Y0173000D01*
X0263083Y0173000D01*
X0263083Y0174000D01*
X0257583Y0174000D01*
X0257583Y0173117D02*
X0263083Y0173117D01*
X0161083Y0173117D02*
X0155583Y0173117D01*
X0155583Y0173000D02*
X0155583Y0174000D01*
X0161083Y0174000D01*
X0161083Y0173000D01*
X0155583Y0173000D01*
X0155583Y0173616D02*
X0161083Y0173616D01*
X0161083Y0072000D02*
X0155583Y0072000D01*
X0155583Y0071000D01*
X0161083Y0071000D01*
X0161083Y0072000D01*
X0161083Y0071920D02*
X0155583Y0071920D01*
X0155583Y0071421D02*
X0161083Y0071421D01*
X0257583Y0071421D02*
X0263083Y0071421D01*
X0263083Y0071000D02*
X0263083Y0072000D01*
X0257583Y0072000D01*
X0257583Y0071000D01*
X0263083Y0071000D01*
X0263083Y0071920D02*
X0257583Y0071920D01*
X0359583Y0071920D02*
X0365083Y0071920D01*
X0365083Y0072000D02*
X0359583Y0072000D01*
X0359583Y0071000D01*
X0365083Y0071000D01*
X0365083Y0072000D01*
X0365083Y0071421D02*
X0359583Y0071421D01*
X0461583Y0071421D02*
X0467083Y0071421D01*
X0467083Y0071000D02*
X0467083Y0072000D01*
X0461583Y0072000D01*
X0461583Y0071000D01*
X0467083Y0071000D01*
X0467083Y0071920D02*
X0461583Y0071920D01*
D13*
X0504333Y0135000D03*
X0402333Y0135000D03*
X0300333Y0135000D03*
X0198333Y0135000D03*
X0198333Y0237000D03*
X0300333Y0237000D03*
X0402333Y0237000D03*
X0504333Y0237000D03*
X0504333Y0339000D03*
X0402333Y0339000D03*
X0300333Y0339000D03*
X0198333Y0339000D03*
X0198333Y0441000D03*
X0300333Y0441000D03*
X0402333Y0441000D03*
X0504333Y0441000D03*
D14*
X0419333Y0446000D03*
X0407333Y0361000D03*
X0419333Y0344000D03*
X0509333Y0361000D03*
X0509333Y0259000D03*
X0419333Y0242000D03*
X0407333Y0259000D03*
X0317333Y0242000D03*
X0305333Y0259000D03*
X0215333Y0242000D03*
X0203333Y0259000D03*
X0113333Y0242000D03*
X0203333Y0157000D03*
X0215333Y0140000D03*
X0305333Y0157000D03*
X0317333Y0140000D03*
X0407333Y0157000D03*
X0419333Y0140000D03*
X0509333Y0157000D03*
X0509333Y0055000D03*
X0407333Y0055000D03*
X0305333Y0055000D03*
X0203333Y0055000D03*
X0113333Y0140000D03*
X0113333Y0344000D03*
X0203333Y0361000D03*
X0215333Y0344000D03*
X0305333Y0361000D03*
X0317333Y0344000D03*
X0317333Y0446000D03*
X0215333Y0446000D03*
X0113333Y0446000D03*
M02*
